<svg xmlns="http://www.w3.org/2000/svg" xmlns:xlink="http://www.w3.org/1999/xlink" width="2000" zoomAndPan="magnify" viewBox="0 0 1500 1499.999933" height="2000" preserveAspectRatio="xMidYMid meet" version="1.0"><defs><g/><clipPath id="7f8a1eb99d"><path d="M 539 0.199219 L 848 0.199219 L 848 350 L 539 350 Z M 539 0.199219 " clip-rule="nonzero"/></clipPath><clipPath id="ee746c2e8f"><path d="M 624 84 L 1042.121094 84 L 1042.121094 492.441406 L 624 492.441406 Z M 624 84 " clip-rule="nonzero"/></clipPath><clipPath id="5cc299ba29"><rect x="0" width="1043" y="0" height="493"/></clipPath></defs><rect x="-150" width="1800" fill="#ffffff" y="-149.999993" height="1799.99992" fill-opacity="1"/><rect x="-150" width="1800" fill="#ffffff" y="-149.999993" height="1799.99992" fill-opacity="1"/><g transform="matrix(1, 0, 0, 1, 233, 493)"><g clip-path="url(#5cc299ba29)"><g fill="#01031a" fill-opacity="1"><g transform="translate(142.43687, 369.804436)"><g><path d="M -32.816406 -267.902344 C -29.589844 -270.566406 -25.914062 -272.878906 -21.792969 -274.847656 L -4.308594 -238.203125 L -28.640625 -270.707031 C -25.652344 -272.941406 -22.390625 -274.90625 -18.855469 -276.589844 L -15.222656 -278.324219 C -8.96875 -281.308594 -1.511719 -284.132812 7.152344 -286.804688 C 18.113281 -290.132812 29.414062 -291.617188 41.054688 -291.25 C 54.808594 -290.636719 67.898438 -286.867188 80.328125 -279.9375 C 94.460938 -272.0625 105.800781 -259.597656 114.339844 -242.546875 C 114.390625 -242.449219 114.359375 -242.511719 114.238281 -242.738281 C 114.296875 -242.628906 114.390625 -242.453125 114.523438 -242.210938 C 114.898438 -241.527344 115.429688 -240.574219 116.113281 -239.355469 C 118.515625 -235.035156 120.804688 -230.269531 122.980469 -225.050781 C 125.464844 -219.140625 127.558594 -212.691406 129.269531 -205.699219 L 129.457031 -204.917969 L 129.617188 -204.132812 C 131.472656 -194.996094 131.890625 -185.800781 130.875 -176.542969 L 130.800781 -175.863281 L 130.703125 -175.183594 C 129.171875 -164.535156 125.484375 -154.417969 119.644531 -144.84375 C 113.339844 -134.507812 104.28125 -125.671875 92.464844 -118.332031 L 71.039062 -152.820312 L 107.683594 -170.304688 L 107.820312 -170.027344 L 71.175781 -152.542969 L 53.691406 -189.1875 C 63.097656 -193.675781 72.242188 -196.589844 81.128906 -197.929688 L 82.199219 -198.089844 L 83.277344 -198.195312 C 92.082031 -199.046875 100.472656 -198.667969 108.457031 -197.0625 C 117.046875 -195.335938 124.929688 -192.335938 132.105469 -188.058594 L 132.933594 -187.5625 L 133.738281 -187.027344 C 139.4375 -183.25 144.5625 -178.914062 149.109375 -174.011719 L 119.347656 -146.394531 L 148.363281 -174.796875 C 158.121094 -164.828125 165.761719 -152.550781 171.285156 -137.960938 L 133.316406 -123.582031 L 169.960938 -141.066406 C 177.753906 -124.734375 180.976562 -108.84375 179.636719 -93.398438 C 178.34375 -78.492188 173.640625 -64.855469 165.527344 -52.496094 C 158.308594 -41.492188 148.96875 -31.984375 137.507812 -23.972656 L 114.242188 -57.242188 L 138.269531 -24.519531 C 129.105469 -17.789062 119.273438 -11.917969 108.777344 -6.910156 L -6.800781 48.230469 L -136.675781 -212.160156 L -26.390625 -272.246094 L -6.96875 -236.59375 Z M 15.875 -202.800781 L -63.441406 -159.589844 L -82.863281 -195.242188 L -46.53125 -213.363281 L 48.058594 -23.714844 L 11.726562 -5.59375 L -5.757812 -42.238281 L 73.8125 -80.199219 C 79.695312 -83.007812 85.164062 -86.261719 90.210938 -89.96875 L 90.585938 -90.246094 L 90.972656 -90.515625 C 93.90625 -92.566406 96.128906 -94.746094 97.640625 -97.050781 C 98.257812 -97.992188 98.625 -99.117188 98.738281 -100.417969 C 98.726562 -100.28125 98.722656 -100.1875 98.726562 -100.148438 C 98.710938 -100.335938 98.667969 -100.597656 98.597656 -100.925781 C 98.285156 -102.339844 97.644531 -104.0625 96.671875 -106.101562 L 95.945312 -107.625 L 95.347656 -109.203125 C 93.835938 -113.191406 92.167969 -116.121094 90.335938 -117.992188 L 89.957031 -118.378906 L 89.585938 -118.777344 C 89.433594 -118.945312 89.199219 -119.132812 88.882812 -119.339844 L 111.3125 -153.183594 L 90.519531 -118.3125 C 91.308594 -117.839844 91.953125 -117.554688 92.457031 -117.453125 L 92.507812 -117.429688 C 92.132812 -117.445312 91.660156 -117.425781 91.089844 -117.367188 L 87.183594 -157.78125 L 93.238281 -117.632812 C 92.320312 -117.496094 90.792969 -116.917969 88.65625 -115.898438 L 52.011719 -98.417969 L 18.75 -168.136719 L 49.617188 -187.3125 C 50.472656 -187.84375 51.070312 -188.269531 51.410156 -188.589844 C 51.097656 -188.292969 50.734375 -187.808594 50.320312 -187.128906 C 50.394531 -187.253906 50.453125 -187.355469 50.496094 -187.441406 L 50.492188 -187.429688 C 50.421875 -187.234375 50.367188 -187.007812 50.328125 -186.746094 L 90.515625 -180.964844 L 50.15625 -185.386719 C 50.253906 -186.257812 50.214844 -187.121094 50.039062 -187.984375 L 89.828125 -196.058594 L 50.386719 -186.417969 C 49.695312 -189.25 48.914062 -191.707031 48.039062 -193.792969 C 47.035156 -196.199219 46.125 -198.132812 45.3125 -199.589844 C 43.355469 -203.082031 42.160156 -205.277344 41.734375 -206.179688 C 40.863281 -207.921875 40.09375 -209.179688 39.421875 -209.953125 C 39.617188 -209.722656 40.078125 -209.410156 40.792969 -209.007812 C 39.527344 -209.714844 38.765625 -210.074219 38.511719 -210.089844 C 35.769531 -210.175781 33.292969 -209.882812 31.082031 -209.210938 C 26.203125 -207.707031 22.421875 -206.3125 19.742188 -205.035156 L 16.109375 -203.304688 C 17.414062 -203.925781 18.714844 -204.722656 20.019531 -205.699219 L 16.800781 -203.289062 L 13.171875 -201.558594 C 15.0625 -202.460938 16.964844 -203.703125 18.878906 -205.28125 Z M 34.609375 -86.183594 C 35.273438 -84.566406 36.457031 -82.910156 38.160156 -81.21875 C 40.378906 -78.90625 43.125 -77.171875 46.402344 -76.011719 L 59.949219 -114.285156 L 48.238281 -75.410156 C 52.496094 -74.128906 56.730469 -73.789062 60.9375 -74.390625 C 63.316406 -74.730469 65.394531 -75.324219 67.167969 -76.171875 L 65.210938 -75.238281 L 47.730469 -111.882812 L 67.113281 -76.207031 L 46.429688 -64.96875 L 27.042969 -100.644531 L 62.882812 -119.722656 L 82.671875 -82.554688 L 46.835938 -63.472656 L 27.800781 -99.335938 L 47.710938 -109.902344 L 48.496094 -110.277344 C 45.851562 -109.015625 43.390625 -106.980469 41.117188 -104.167969 C 37.699219 -99.945312 35.695312 -95.148438 35.105469 -89.78125 C 34.878906 -87.707031 35.042969 -86.027344 35.601562 -84.738281 L 72.847656 -100.902344 L 43.613281 -72.730469 L 37.554688 -79.015625 Z M 109.726562 -117.03125 L 72.167969 -101.605469 L 101.402344 -129.78125 L 107.171875 -123.792969 L 110.09375 -117.066406 C 115.25 -105.179688 117.160156 -93.136719 115.824219 -80.933594 C 114.679688 -70.503906 110.820312 -61.21875 104.238281 -53.089844 C 98.800781 -46.371094 91.875 -41.003906 83.460938 -36.988281 L 65.976562 -73.632812 L 85.011719 -37.773438 L 30.050781 -8.597656 L -27.714844 -117.097656 L 29.285156 -148.066406 L 32.203125 -149.460938 C 37.882812 -152.171875 43.625 -153.941406 49.425781 -154.773438 C 57.058594 -155.867188 64.46875 -155.328125 71.664062 -153.160156 L 72.589844 -152.882812 L 73.5 -152.558594 C 82.273438 -149.453125 89.578125 -144.867188 95.417969 -138.796875 C 101.46875 -132.78125 106.238281 -125.523438 109.726562 -117.03125 Z M -6.808594 -165.816406 C -6.144531 -164.199219 -4.960938 -162.546875 -3.257812 -160.851562 C -1.039062 -158.539062 1.707031 -156.804688 4.980469 -155.644531 L 18.53125 -193.917969 L 6.816406 -155.042969 C 11.078125 -153.761719 15.308594 -153.421875 19.519531 -154.023438 C 21.898438 -154.363281 23.972656 -154.957031 25.746094 -155.804688 L 23.792969 -154.871094 L 6.3125 -191.515625 L 25.695312 -155.839844 L 5.007812 -144.601562 L -14.375 -180.277344 L 21.464844 -199.355469 L 41.253906 -162.1875 L 5.414062 -143.105469 L -13.621094 -178.96875 L 6.292969 -189.535156 L 7.078125 -189.910156 C 3.980469 -188.433594 1.210938 -186.09375 -1.238281 -182.890625 C -4.492188 -178.640625 -6.347656 -173.917969 -6.808594 -168.726562 C -6.921875 -167.757812 -6.785156 -166.78125 -6.40625 -165.808594 L 31.429688 -180.535156 L 2.191406 -152.363281 L -3.863281 -158.648438 Z M 68.308594 -196.664062 L 30.75 -181.242188 L 59.984375 -209.414062 L 66.3125 -202.847656 L 69.265625 -195.261719 C 73.695312 -183.882812 75.296875 -172.644531 74.074219 -161.546875 C 73.148438 -151.105469 69.546875 -141.78125 63.269531 -133.574219 C 57.796875 -126.414062 50.71875 -120.761719 42.042969 -116.621094 L 24.558594 -153.265625 L 43.59375 -117.40625 L -11.367188 -88.230469 L -69.132812 -196.730469 L -12.136719 -227.699219 L -9.21875 -229.09375 C -3.535156 -231.804688 2.207031 -233.574219 8.007812 -234.40625 C 15.636719 -235.5 23.050781 -234.960938 30.246094 -232.792969 L 31.171875 -232.515625 L 32.082031 -232.191406 C 40.855469 -229.085938 48.160156 -224.5 54 -218.429688 C 60.050781 -212.414062 64.820312 -205.160156 68.308594 -196.664062 Z M 68.308594 -196.664062 "/></g></g></g><g fill="#01031a" fill-opacity="1"><g transform="translate(289.331062, 298.442038)"><g><path d="M -34.386719 -188.476562 L 61.359375 -216.351562 L 86.539062 -90.78125 C 87.59375 -86.003906 88.652344 -81.605469 89.722656 -77.585938 L 89.949219 -76.734375 L 90.140625 -75.871094 C 90.277344 -75.242188 90.394531 -74.789062 90.496094 -74.507812 C 90.378906 -74.835938 90.15625 -75.285156 89.835938 -75.851562 C 88.765625 -77.722656 87.367188 -79.492188 85.636719 -81.15625 C 83.222656 -83.480469 80.4375 -85.332031 77.289062 -86.710938 L 79.222656 -85.863281 L 81.0625 -84.820312 C 76.988281 -87.136719 72.726562 -88.457031 68.285156 -88.792969 C 65.933594 -88.96875 63.824219 -88.855469 61.957031 -88.445312 C 58.070312 -87.589844 54.519531 -86.203125 51.308594 -84.285156 L 56.96875 -87.664062 L 64.914062 -89.410156 L 73.628906 -49.753906 L 61.777344 -88.589844 C 62.003906 -88.65625 62.164062 -88.710938 62.25 -88.742188 C 62.0625 -88.671875 61.820312 -88.558594 61.523438 -88.40625 C 59.753906 -87.5 57.992188 -86.199219 56.238281 -84.503906 C 52.066406 -80.472656 49.519531 -75.6875 48.601562 -70.144531 L 48.683594 -70.632812 L 48.777344 -71.121094 C 48.515625 -69.753906 48.402344 -68.5625 48.429688 -67.542969 C 48.433594 -67.464844 48.4375 -67.402344 48.441406 -67.351562 C 48.4375 -67.355469 48.4375 -67.375 48.433594 -67.40625 C 48.414062 -67.605469 48.375 -67.859375 48.320312 -68.167969 L 88.316406 -75.152344 L 48.660156 -66.4375 L 45.140625 -82.449219 L 19.351562 -197.664062 L 150.449219 -235.882812 L 177.398438 -115.480469 C 179.96875 -103.792969 181.742188 -92.308594 182.722656 -81.023438 C 184.140625 -65.21875 182.164062 -50.167969 176.800781 -35.875 C 170.800781 -19.886719 160.148438 -6.21875 144.84375 5.136719 C 131.570312 15.34375 113.324219 22.996094 90.105469 28.101562 C 67.953125 32.96875 48.636719 33.324219 32.160156 29.164062 C 14.617188 24.894531 -0.0585938 16.933594 -11.863281 5.277344 L 16.664062 -23.617188 L -10.9375 6.160156 C -22.203125 -4.28125 -30.710938 -17.039062 -36.453125 -32.105469 C -40.605469 -42.890625 -43.941406 -54.019531 -46.460938 -65.484375 L -70.699219 -177.90625 Z M -11.691406 -110.511719 L -23.039062 -149.496094 L 16.648438 -158.050781 L 32.847656 -82.914062 C 34.488281 -75.449219 36.679688 -68.152344 39.421875 -61.03125 C 40.660156 -57.78125 42.273438 -55.238281 44.261719 -53.394531 L 44.734375 -52.957031 L 45.1875 -52.507812 C 46.328125 -51.382812 48.609375 -50.402344 52.035156 -49.570312 C 53.457031 -49.210938 55.523438 -49.078125 58.238281 -49.171875 C 62.320312 -49.3125 67.132812 -49.992188 72.675781 -51.210938 C 79.101562 -52.621094 84.523438 -54.222656 88.945312 -56.015625 C 92.082031 -57.285156 94.585938 -58.640625 96.457031 -60.074219 C 98.089844 -61.285156 99.320312 -62.410156 100.152344 -63.449219 C 100.484375 -63.863281 100.691406 -64.183594 100.777344 -64.410156 C 101.804688 -67.144531 102.152344 -70.339844 101.824219 -74 C 101.148438 -81.777344 99.925781 -89.691406 98.15625 -97.742188 L 80.65625 -175.925781 L 120.277344 -184.796875 L 131.640625 -145.816406 L 78.660156 -130.371094 L 67.296875 -169.351562 L 106.917969 -178.21875 L 124.453125 -99.882812 L 128.160156 -83.007812 L 128.3125 -82.140625 C 129.980469 -72.589844 130.054688 -63.84375 128.539062 -55.902344 L 88.660156 -63.511719 L 128.714844 -56.875 C 126.707031 -44.757812 121.351562 -34.5 112.652344 -26.09375 C 105.707031 -19.386719 96.648438 -14.332031 85.480469 -10.921875 L 83.929688 -10.449219 L 80.832031 -9.769531 L 72.117188 -49.421875 L 92.925781 -14.558594 C 88.59375 -11.972656 84.082031 -10.167969 79.390625 -9.132812 C 65.214844 -6.019531 52.40625 -7.710938 40.964844 -14.210938 L 61.011719 -49.515625 L 44.738281 -12.320312 C 33.960938 -17.035156 25.496094 -24.78125 19.335938 -35.558594 C 15.570312 -42.144531 12.734375 -49.773438 10.828125 -58.441406 L 50.484375 -67.15625 L 11.246094 -56.726562 C 9.875 -61.882812 8.433594 -67.914062 6.921875 -74.816406 L -9.5625 -157.023438 L 30.242188 -165.007812 L 41.59375 -126.023438 Z M -11.691406 -110.511719 "/></g></g></g><g fill="#01031a" fill-opacity="1"><g transform="translate(435.979597, 264.22486)"><g><path d="M -40.167969 -81.878906 C -40.101562 -94.011719 -38.996094 -105.8125 -36.851562 -117.273438 C -34.15625 -131.65625 -29.039062 -144.601562 -21.503906 -156.117188 C -12.882812 -169.285156 -1.128906 -179.542969 13.769531 -186.890625 C 27.417969 -193.800781 44.109375 -197.203125 63.84375 -197.097656 C 73.996094 -197.046875 83.011719 -195.75 90.894531 -193.214844 C 98.699219 -190.707031 105.609375 -187.34375 111.625 -183.128906 L 112.460938 -182.546875 L 113.265625 -181.921875 C 118.851562 -177.574219 123.671875 -172.671875 127.71875 -167.21875 L 128.828125 -165.71875 L 129.796875 -164.125 C 132.054688 -160.417969 134.160156 -156.582031 136.113281 -152.617188 L 99.703125 -134.652344 L 99.917969 -175.253906 L 102.085938 -175.242188 L 101.867188 -134.640625 L 61.273438 -134.046875 L 59.566406 -250.714844 L 203.757812 -258.554688 L 202.769531 -72.238281 C 202.714844 -61.625 202.761719 -52.039062 202.917969 -43.484375 L 202.925781 -43.011719 L 202.921875 -42.539062 C 202.878906 -34.097656 202.933594 -26.785156 203.09375 -20.605469 L 204.652344 41.6875 L 64.65625 40.945312 L 72.699219 -39.332031 L 113.097656 -35.285156 L 153.019531 -27.898438 C 150.382812 -13.648438 145.410156 -1.628906 138.09375 8.160156 C 130.855469 17.707031 122.625 25.082031 113.40625 30.285156 C 104.5625 35.277344 95.414062 38.421875 85.960938 39.722656 L 80.429688 -0.5 L 87.480469 39.484375 C 80.539062 40.707031 74.296875 41.304688 68.765625 41.277344 L 57.84375 41.21875 L 51.605469 39.101562 C 55.148438 40.304688 58.910156 40.914062 62.886719 40.933594 C 44.738281 40.839844 28.90625 36.988281 15.390625 29.386719 C 3.003906 22.773438 -7.269531 13.835938 -15.433594 2.582031 L 17.4375 -21.253906 L -14.507812 3.808594 C -22.011719 -5.757812 -27.722656 -16.1875 -31.644531 -27.488281 C -37.433594 -43.738281 -40.273438 -61.871094 -40.167969 -81.878906 Z M 41.035156 -81.449219 C 40.976562 -70.9375 42.324219 -61.824219 45.070312 -54.105469 C 46.023438 -51.355469 47.460938 -48.757812 49.378906 -46.3125 L 49.851562 -45.707031 L 50.304688 -45.089844 C 51.152344 -43.921875 52.785156 -42.6875 55.203125 -41.386719 C 55.476562 -41.230469 56.015625 -41.0625 56.816406 -40.878906 C 58.554688 -40.484375 60.722656 -40.28125 63.320312 -40.265625 C 68.125 -40.238281 72.914062 -39.417969 77.691406 -37.796875 L 64.648438 0.652344 L 64.863281 -39.949219 L 69.195312 -39.925781 C 69.847656 -39.921875 71.242188 -40.109375 73.378906 -40.484375 L 74.140625 -40.621094 L 74.902344 -40.722656 C 74.363281 -40.648438 73.890625 -40.542969 73.484375 -40.398438 L 73.492188 -40.429688 C 72.984375 -40.144531 72.605469 -39.886719 72.355469 -39.660156 C 72.554688 -39.839844 72.785156 -40.101562 73.050781 -40.449219 C 72.636719 -39.898438 72.390625 -39.523438 72.316406 -39.328125 C 72.617188 -40.097656 72.902344 -41.210938 73.171875 -42.667969 L 153.496094 -31.234375 L 149.902344 4.628906 L 109.503906 0.582031 L 109.71875 -40.019531 L 163.234375 -39.734375 L 163.019531 0.863281 L 122.429688 1.878906 L 121.921875 -18.5 C 121.738281 -25.523438 121.671875 -33.679688 121.722656 -42.972656 L 162.320312 -42.753906 L 121.726562 -42.027344 C 121.5625 -51.210938 121.507812 -61.425781 121.570312 -72.667969 L 122.328125 -215.890625 L 162.929688 -215.675781 L 165.132812 -175.132812 L 102.9375 -171.75 L 100.734375 -212.292969 L 141.332031 -212.886719 L 143.070312 -93.820312 L 74.394531 -94.1875 L 63.292969 -116.6875 C 62.390625 -118.515625 61.433594 -120.261719 60.417969 -121.933594 L 95.109375 -143.03125 L 62.5 -118.839844 C 62.859375 -118.355469 63.164062 -118.015625 63.414062 -117.820312 L 88.339844 -149.871094 L 65.050781 -116.613281 C 65.574219 -116.246094 66.035156 -115.96875 66.441406 -115.777344 L 66.46875 -115.761719 C 66.355469 -115.804688 66.207031 -115.855469 66.035156 -115.914062 C 66.339844 -115.8125 66.597656 -115.742188 66.808594 -115.695312 L 66.8125 -115.695312 C 66.746094 -115.707031 66.667969 -115.71875 66.570312 -115.730469 C 65.769531 -115.835938 64.714844 -115.890625 63.410156 -115.898438 C 59.414062 -115.917969 56.039062 -115.667969 53.28125 -115.148438 C 51.742188 -114.859375 50.546875 -114.5 49.695312 -114.070312 C 48.050781 -113.257812 46.964844 -112.449219 46.433594 -111.640625 C 44.824219 -109.179688 43.667969 -106.074219 42.964844 -102.324219 C 41.714844 -95.660156 41.070312 -88.699219 41.035156 -81.449219 Z M 100.394531 -75.257812 C 100.359375 -69.015625 100.425781 -63.699219 100.582031 -59.3125 C 100.59375 -59.042969 100.609375 -58.820312 100.625 -58.648438 C 100.628906 -58.625 100.628906 -58.613281 100.628906 -58.613281 C 100.625 -58.65625 100.613281 -58.710938 100.601562 -58.78125 C 100.445312 -59.582031 100.144531 -60.5 99.703125 -61.527344 L 100.132812 -60.527344 L 100.507812 -59.503906 C 99.53125 -62.160156 98.09375 -64.636719 96.199219 -66.933594 C 94.117188 -69.457031 91.683594 -71.527344 88.894531 -73.140625 C 86.535156 -74.503906 84.230469 -75.417969 81.988281 -75.878906 C 81.550781 -75.96875 81.175781 -76.03125 80.871094 -76.058594 L 80.84375 -76.0625 C 80.925781 -76.058594 81.023438 -76.054688 81.140625 -76.054688 C 81.492188 -76.054688 81.761719 -76.058594 81.949219 -76.074219 C 81.832031 -76.0625 81.640625 -76.035156 81.371094 -75.988281 C 79.484375 -75.644531 77.46875 -74.910156 75.324219 -73.785156 C 70.109375 -71.039062 66.328125 -67.015625 63.976562 -61.71875 L 101.085938 -45.246094 L 63.144531 -59.703125 C 62.875 -58.996094 62.703125 -58.433594 62.628906 -58.015625 C 62.683594 -58.320312 62.726562 -58.820312 62.761719 -59.511719 C 62.964844 -63.898438 63.085938 -69.210938 63.117188 -75.453125 L 63.199219 -90.300781 C 63.203125 -91.171875 63.179688 -91.890625 63.132812 -92.457031 C 63.125 -92.574219 63.117188 -92.660156 63.109375 -92.707031 C 63.125 -92.609375 63.148438 -92.476562 63.179688 -92.3125 C 64.589844 -86.046875 67.746094 -80.742188 72.660156 -76.398438 L 99.554688 -106.8125 L 76.855469 -73.152344 C 80.121094 -70.949219 83.527344 -69.441406 87.066406 -68.636719 C 88.570312 -68.292969 89.882812 -68.117188 91 -68.113281 C 90.542969 -68.117188 89.25 -67.960938 87.121094 -67.65625 C 85.457031 -67.40625 84.046875 -67.15625 82.890625 -66.902344 C 82.535156 -66.824219 82.25 -66.757812 82.042969 -66.699219 L 82.039062 -66.699219 C 82.136719 -66.730469 82.246094 -66.765625 82.375 -66.8125 C 84.792969 -67.660156 87.132812 -68.921875 89.386719 -70.597656 C 92.609375 -72.988281 95.285156 -75.933594 97.414062 -79.4375 L 97.136719 -78.984375 L 96.847656 -78.535156 C 99.222656 -82.21875 100.511719 -85.738281 100.714844 -89.085938 C 100.535156 -85.960938 100.425781 -81.347656 100.394531 -75.257812 Z M 19.195312 -75.6875 C 19.234375 -83.203125 19.390625 -89.316406 19.664062 -94.023438 C 20.320312 -104.792969 23.289062 -114.285156 28.574219 -122.492188 L 62.710938 -100.511719 L 28.007812 -121.585938 C 34.285156 -131.921875 43.4375 -139.203125 55.46875 -143.425781 C 60.800781 -145.300781 67.476562 -146.832031 75.5 -148.019531 C 81.625 -148.90625 86.9375 -149.335938 91.429688 -149.3125 C 103.335938 -149.25 113.613281 -146.304688 122.257812 -140.476562 L 124.460938 -138.988281 L 126.453125 -137.226562 C 134.648438 -129.980469 140.054688 -120.539062 142.671875 -108.90625 C 143.859375 -103.207031 144.433594 -96.863281 144.398438 -89.871094 L 144.320312 -75.023438 C 144.28125 -67.652344 144.132812 -61.214844 143.871094 -55.703125 C 143.4375 -46.429688 141.820312 -38.125 139.023438 -30.789062 L 138.636719 -29.769531 L 138.195312 -28.773438 C 132.921875 -16.894531 124.574219 -7.945312 113.15625 -1.933594 C 104.066406 2.851562 93.25 5.210938 80.710938 5.144531 C 68.160156 5.078125 57.335938 2.414062 48.234375 -2.851562 C 36.898438 -9.410156 28.929688 -18.925781 24.328125 -31.398438 L 62.417969 -45.453125 L 25.136719 -29.375 C 21.699219 -37.34375 19.800781 -46.339844 19.433594 -56.363281 C 19.234375 -61.875 19.15625 -68.316406 19.195312 -75.6875 Z M 19.195312 -75.6875 "/></g></g></g><g clip-path="url(#7f8a1eb99d)"><g fill="#01031a" fill-opacity="1"><g transform="translate(588.913131, 263.209086)"><g><path d="M -21.039062 -88.742188 C -18.289062 -100.558594 -14.597656 -111.820312 -9.964844 -122.523438 C -4.152344 -135.949219 3.703125 -147.445312 13.601562 -157 C 24.921875 -167.933594 38.660156 -175.335938 54.8125 -179.203125 C 69.652344 -182.917969 86.683594 -182.539062 105.902344 -178.066406 C 115.792969 -175.765625 124.300781 -172.507812 131.425781 -168.289062 C 138.476562 -164.113281 144.472656 -159.304688 149.40625 -153.863281 L 150.09375 -153.109375 L 150.738281 -152.320312 C 155.226562 -146.84375 158.839844 -141 161.578125 -134.785156 L 162.328125 -133.074219 L 162.921875 -131.304688 C 164.296875 -127.191406 165.503906 -122.984375 166.53125 -118.6875 L 127.046875 -109.230469 L 136.246094 -148.777344 L 138.355469 -148.285156 L 129.15625 -108.742188 L 89.4375 -117.152344 L 113.609375 -231.300781 L 255.957031 -207.015625 L 213.734375 -25.542969 C 211.328125 -15.203125 209.253906 -5.84375 207.507812 2.53125 L 207.410156 2.992188 L 207.304688 3.453125 C 205.390625 11.675781 203.828125 18.820312 202.617188 24.878906 L 190.339844 85.972656 L 53.984375 54.246094 L 79.601562 -22.253906 L 118.101562 -9.363281 L 155.398438 6.679688 C 149.671875 19.992188 142.160156 30.613281 132.855469 38.539062 C 123.6875 46.242188 114.027344 51.613281 103.882812 54.648438 C 94.152344 57.554688 84.535156 58.597656 75.03125 57.769531 L 78.546875 17.324219 L 76.566406 57.875 C 69.523438 57.53125 63.304688 56.734375 57.917969 55.480469 L 47.28125 53.003906 L 41.664062 49.558594 C 44.851562 51.515625 48.386719 52.945312 52.261719 53.84375 C 34.585938 49.730469 19.996094 42.472656 8.5 32.066406 C -2.113281 22.871094 -10.15625 11.882812 -15.621094 -0.898438 L 21.710938 -16.863281 L -14.992188 0.5 C -20.191406 -10.488281 -23.449219 -21.925781 -24.773438 -33.8125 C -26.816406 -50.941406 -25.574219 -69.25 -21.039062 -88.742188 Z M 58.050781 -70.339844 C 55.667969 -60.101562 54.964844 -50.917969 55.933594 -42.78125 C 56.253906 -39.890625 57.082031 -37.039062 58.410156 -34.226562 L 58.738281 -33.535156 L 59.039062 -32.828125 C 59.605469 -31.503906 60.925781 -29.9375 62.996094 -28.132812 C 63.230469 -27.921875 63.71875 -27.636719 64.460938 -27.28125 C 66.066406 -26.511719 68.132812 -25.832031 70.664062 -25.242188 C 75.34375 -24.15625 79.832031 -22.292969 84.132812 -19.652344 L 62.898438 14.953125 L 72.101562 -24.59375 L 76.316406 -23.609375 C 76.953125 -23.464844 78.355469 -23.335938 80.523438 -23.230469 L 81.292969 -23.191406 L 82.0625 -23.125 C 81.519531 -23.171875 81.035156 -23.171875 80.605469 -23.121094 L 80.621094 -23.152344 C 80.0625 -22.984375 79.636719 -22.820312 79.34375 -22.652344 C 79.574219 -22.785156 79.859375 -22.988281 80.191406 -23.269531 C 79.667969 -22.824219 79.347656 -22.511719 79.230469 -22.339844 C 79.695312 -23.019531 80.21875 -24.042969 80.804688 -25.40625 L 156.601562 3.53125 L 145.15625 37.707031 L 106.65625 24.816406 L 115.855469 -14.730469 L 167.980469 -2.601562 L 158.78125 36.941406 L 118.972656 28.945312 L 122.992188 8.957031 C 124.367188 2.066406 126.109375 -5.902344 128.214844 -14.949219 L 167.757812 -5.75 L 128.011719 -14.027344 C 129.882812 -23.019531 132.09375 -32.992188 134.644531 -43.945312 L 167.101562 -183.441406 L 206.644531 -174.238281 L 199.816406 -134.214844 L 138.417969 -144.691406 L 145.246094 -184.714844 L 184.964844 -176.304688 L 160.296875 -59.808594 L 93.40625 -75.371094 L 87.5625 -99.777344 C 87.085938 -101.753906 86.539062 -103.671875 85.917969 -105.527344 L 124.421875 -118.417969 L 87.265625 -102.050781 C 87.507812 -101.496094 87.730469 -101.097656 87.929688 -100.855469 L 119.332031 -126.585938 L 89.261719 -99.3125 C 89.6875 -98.839844 90.078125 -98.464844 90.429688 -98.1875 L 90.453125 -98.167969 C 90.351562 -98.234375 90.222656 -98.316406 90.0625 -98.410156 C 90.339844 -98.25 90.574219 -98.121094 90.769531 -98.03125 L 90.773438 -98.027344 C 90.710938 -98.054688 90.636719 -98.082031 90.546875 -98.117188 C 89.789062 -98.394531 88.773438 -98.683594 87.503906 -98.976562 C 83.609375 -99.882812 80.261719 -100.386719 77.457031 -100.492188 C 75.894531 -100.550781 74.648438 -100.464844 73.722656 -100.234375 C 71.9375 -99.804688 70.699219 -99.257812 70.003906 -98.585938 C 67.886719 -96.542969 66.070312 -93.769531 64.558594 -90.269531 C 61.863281 -84.046875 59.695312 -77.402344 58.050781 -70.339844 Z M 114.566406 -51.15625 C 113.152344 -45.078125 112.039062 -39.878906 111.222656 -35.566406 C 111.171875 -35.300781 111.136719 -35.082031 111.117188 -34.910156 C 111.113281 -34.886719 111.113281 -34.875 111.113281 -34.871094 C 111.113281 -34.917969 111.117188 -34.972656 111.121094 -35.042969 C 111.144531 -35.859375 111.054688 -36.820312 110.851562 -37.921875 L 111.050781 -36.851562 L 111.191406 -35.769531 C 110.824219 -38.574219 109.972656 -41.308594 108.632812 -43.96875 C 107.160156 -46.890625 105.246094 -49.449219 102.886719 -51.636719 C 100.882812 -53.492188 98.839844 -54.894531 96.757812 -55.839844 C 96.347656 -56.023438 96 -56.164062 95.703125 -56.261719 L 95.679688 -56.269531 C 95.757812 -56.25 95.855469 -56.226562 95.96875 -56.199219 C 96.3125 -56.117188 96.574219 -56.0625 96.761719 -56.035156 C 96.644531 -56.054688 96.449219 -56.070312 96.179688 -56.082031 C 94.261719 -56.167969 92.132812 -55.898438 89.792969 -55.269531 C 84.101562 -53.75 79.519531 -50.664062 76.054688 -46.015625 L 108.59375 -21.738281 L 74.800781 -44.238281 C 74.378906 -43.609375 74.085938 -43.097656 73.921875 -42.707031 C 74.042969 -42.992188 74.195312 -43.46875 74.382812 -44.136719 C 75.554688 -48.367188 76.847656 -53.523438 78.261719 -59.601562 L 81.625 -74.066406 C 81.824219 -74.914062 81.960938 -75.617188 82.039062 -76.179688 C 82.058594 -76.296875 82.066406 -76.382812 82.070312 -76.429688 C 82.0625 -76.332031 82.058594 -76.195312 82.054688 -76.027344 C 82.039062 -69.609375 83.945312 -63.734375 87.773438 -58.414062 L 120.738281 -82.113281 L 91.148438 -54.316406 C 93.84375 -51.445312 96.832031 -49.222656 100.101562 -47.652344 C 101.496094 -46.984375 102.734375 -46.523438 103.824219 -46.269531 C 103.378906 -46.375 102.082031 -46.511719 99.9375 -46.683594 C 98.261719 -46.808594 96.832031 -46.878906 95.648438 -46.886719 C 95.285156 -46.890625 94.992188 -46.886719 94.777344 -46.875 L 94.773438 -46.878906 C 94.875 -46.886719 94.992188 -46.894531 95.125 -46.910156 C 97.671875 -47.203125 100.230469 -47.917969 102.800781 -49.050781 C 106.476562 -50.667969 109.738281 -52.949219 112.585938 -55.894531 L 112.214844 -55.511719 L 111.835938 -55.136719 C 114.964844 -58.207031 117 -61.351562 117.941406 -64.574219 C 117.074219 -61.5625 115.949219 -57.089844 114.566406 -51.15625 Z M 35.476562 -69.558594 C 37.179688 -76.878906 38.6875 -82.804688 39.996094 -87.332031 C 43.019531 -97.691406 48.019531 -106.289062 54.988281 -113.121094 L 83.410156 -84.128906 L 54.238281 -112.363281 C 62.644531 -121.054688 73.183594 -126.125 85.855469 -127.582031 C 91.46875 -128.226562 98.316406 -128.242188 106.40625 -127.625 C 112.574219 -127.132812 117.847656 -126.378906 122.222656 -125.359375 C 133.820312 -122.660156 143.191406 -117.511719 150.328125 -109.914062 L 152.148438 -107.976562 L 153.703125 -105.816406 C 160.089844 -96.933594 163.269531 -86.53125 163.246094 -74.605469 C 163.144531 -68.789062 162.300781 -62.472656 160.714844 -55.664062 L 157.351562 -41.203125 C 155.679688 -34.023438 154.109375 -27.777344 152.636719 -22.460938 C 150.15625 -13.515625 146.742188 -5.773438 142.390625 0.761719 L 141.789062 1.667969 L 141.136719 2.542969 C 133.363281 12.960938 123.242188 19.839844 110.773438 23.171875 C 100.851562 25.828125 89.78125 25.734375 77.566406 22.890625 C 65.34375 20.046875 55.378906 15.050781 47.667969 7.902344 C 38.066406 -1.003906 32.402344 -12.046875 30.675781 -25.230469 L 70.933594 -30.5 L 31.015625 -23.078125 C 29.429688 -31.609375 29.570312 -40.804688 31.433594 -50.660156 C 32.460938 -56.082031 33.808594 -62.378906 35.476562 -69.558594 Z M 35.476562 -69.558594 "/></g></g></g></g><g clip-path="url(#ee746c2e8f)"><g fill="#01031a" fill-opacity="1"><g transform="translate(738.268829, 296.066106)"><g><path d="M 42.707031 -14.261719 L 52.753906 5.40625 L 16.601562 23.882812 L 34.335938 -12.640625 C 38.472656 -10.632812 42.171875 -8.035156 45.429688 -4.851562 C 50.117188 -0.273438 53.527344 5.105469 55.667969 11.28125 L 17.300781 24.566406 L 35.039062 -11.957031 L 48.015625 -5.65625 L 54.183594 6.699219 C 51.582031 1.488281 47.71875 -2.359375 42.589844 -4.851562 C 38 -7.078125 33.121094 -7.839844 27.945312 -7.132812 L 29.152344 -7.296875 L 30.367188 -7.390625 C 27.761719 -7.191406 25.402344 -6.546875 23.28125 -5.457031 C 23.535156 -5.585938 23.894531 -5.84375 24.363281 -6.222656 L 49.960938 25.292969 L 23.378906 -5.394531 L 30.5 -11.566406 L 57.082031 19.125 L 20.558594 1.386719 L 23.398438 -4.457031 L 59.921875 13.28125 L 19.335938 14.480469 C 19.023438 3.910156 18.835938 -8.320312 18.769531 -22.214844 C 18.613281 -35.753906 18.640625 -49.761719 18.851562 -64.226562 C 18.777344 -77.90625 18.800781 -91.574219 18.925781 -105.230469 C 18.773438 -117.671875 18.511719 -128.734375 18.132812 -138.410156 L 15.617188 -202.785156 L 165.488281 -138.167969 L 151.40625 -11.0625 L 111.054688 -15.535156 L 83.332031 -45.199219 C 83.210938 -45.085938 83.132812 -45.007812 83.089844 -44.964844 C 83.1875 -45.070312 83.320312 -45.214844 83.480469 -45.40625 C 84.058594 -46.085938 84.738281 -46.964844 85.527344 -48.039062 C 88.609375 -52.25 92.660156 -57.476562 97.675781 -63.722656 C 102.183594 -69.597656 108.078125 -76.714844 115.359375 -85.078125 C 122.726562 -93.535156 131.855469 -103.1875 142.746094 -114.035156 L 162.164062 -133.371094 L 305.292969 -72.171875 L 125.933594 87.945312 C 117.632812 95.28125 108.59375 101.6875 98.816406 107.15625 C 88.398438 112.980469 77.515625 117.300781 66.164062 120.109375 C 54.425781 123.261719 42.207031 124.414062 29.511719 123.5625 C 15.726562 122.511719 2.441406 118.878906 -10.355469 112.667969 C -21.785156 107.117188 -31.222656 100.082031 -38.671875 91.566406 L -8.105469 64.839844 L -37.769531 92.5625 C -43.992188 85.90625 -48.949219 79.222656 -52.648438 72.515625 C -56.136719 65.984375 -58.605469 58.753906 -60.050781 50.832031 L -20.109375 43.535156 L -59.382812 53.835938 C -60.609375 49.164062 -61.660156 44.4375 -62.53125 39.652344 L -66.441406 18.261719 L 17.769531 -63.0625 Z M -29.601562 22.6875 L 6.550781 4.214844 L 34.753906 33.417969 L 5.613281 61.5625 L -22.59375 32.359375 L 17.347656 25.0625 C 17.851562 27.824219 18.457031 30.550781 19.160156 33.234375 L 19.550781 34.722656 L 19.828125 36.242188 L 19.8125 36.28125 C 19.570312 35.535156 19.117188 34.539062 18.453125 33.300781 C 18.902344 34.109375 19.9375 35.382812 21.558594 37.121094 L 22.019531 37.609375 L 22.460938 38.117188 C 22.382812 38.027344 22.324219 37.964844 22.28125 37.925781 C 22.34375 37.984375 22.445312 38.0625 22.578125 38.160156 C 23.203125 38.617188 24.050781 39.105469 25.117188 39.621094 C 28.648438 41.335938 31.925781 42.308594 34.941406 42.542969 C 38.675781 42.792969 42.578125 42.375 46.65625 41.285156 C 50.9375 40.226562 55.113281 38.558594 59.175781 36.285156 C 63.878906 33.65625 68.105469 30.683594 71.855469 27.367188 L 203.589844 -90.230469 L 230.625 -59.941406 L 214.664062 -22.609375 L 155.433594 -47.933594 L 171.398438 -85.265625 L 200.046875 -56.5 C 190.515625 -47.003906 182.695312 -38.753906 176.589844 -31.742188 C 170.402344 -24.636719 165.199219 -18.34375 160.980469 -12.867188 C 156.722656 -7.566406 153.414062 -3.304688 151.046875 -0.0742188 C 146.820312 5.699219 142.730469 10.433594 138.773438 14.132812 L 58.617188 89.035156 L 81.472656 -117.25 L 121.828125 -112.777344 L 105.753906 -75.496094 L 42.628906 -102.710938 L 58.703125 -139.996094 L 99.273438 -141.582031 C 99.679688 -131.160156 99.964844 -118.800781 100.121094 -104.5 C 100.003906 -91.222656 99.976562 -77.402344 100.042969 -63.042969 C 99.84375 -49.285156 99.816406 -35.800781 99.96875 -22.601562 C 100.03125 -9.378906 100.210938 2.183594 100.503906 12.082031 L 100.796875 22.046875 L 89.964844 44.355469 L 76.054688 56.40625 L 75.554688 56.8125 C 70.722656 60.734375 65.683594 64.046875 60.433594 66.746094 C 52.816406 70.667969 44.847656 72.945312 36.53125 73.578125 L 33.449219 33.09375 L 38.949219 73.320312 C 27.882812 74.832031 17.273438 73.125 7.117188 68.195312 C -4.316406 62.640625 -12.847656 54.230469 -18.46875 42.96875 L 17.855469 24.835938 L 0.121094 61.355469 L -15.5625 53.738281 L -21.066406 37.847656 C -19.023438 43.75 -15.773438 48.875 -11.320312 53.226562 C -8.296875 56.183594 -4.902344 58.574219 -1.136719 60.402344 L -13.367188 54.464844 Z M -29.601562 22.6875 "/></g></g></g></g><g fill="#ffffff" fill-opacity="1"><g transform="translate(142.43687, 369.804436)"><g><path d="M -6.96875 -236.59375 C -6.3125 -237.125 -5.425781 -237.660156 -4.3125 -238.203125 C -3.457031 -238.835938 -2.476562 -239.421875 -1.375 -239.953125 L 2.265625 -241.6875 C 6.734375 -243.820312 12.347656 -245.925781 19.109375 -248 C 25.703125 -250.007812 32.59375 -250.898438 39.78125 -250.671875 C 46.789062 -250.367188 53.71875 -248.300781 60.5625 -244.46875 C 67.40625 -240.65625 73.226562 -233.953125 78.03125 -224.359375 C 78.300781 -223.796875 79.195312 -222.164062 80.71875 -219.46875 C 82.320312 -216.59375 83.921875 -213.25 85.515625 -209.4375 C 87.191406 -205.425781 88.628906 -200.96875 89.828125 -196.0625 C 90.835938 -191.070312 91.066406 -186.039062 90.515625 -180.96875 C 89.773438 -175.820312 87.929688 -170.828125 84.984375 -165.984375 C 82.035156 -161.148438 77.390625 -156.757812 71.046875 -152.8125 L 71.171875 -152.53125 C 76.941406 -155.289062 82.273438 -157.046875 87.171875 -157.796875 C 91.984375 -158.242188 96.410156 -158.066406 100.453125 -157.265625 C 104.492188 -156.453125 108.113281 -155.09375 111.3125 -153.1875 C 114.332031 -151.195312 117.007812 -148.925781 119.34375 -146.375 C 125.144531 -140.476562 129.804688 -132.882812 133.328125 -123.59375 C 137.953125 -113.914062 139.90625 -105.019531 139.1875 -96.90625 C 138.488281 -88.8125 135.953125 -81.429688 131.578125 -74.765625 C 127.210938 -68.117188 121.4375 -62.28125 114.25 -57.25 C 107.132812 -52.03125 99.484375 -47.46875 91.296875 -43.5625 L 11.734375 -5.59375 L -82.875 -195.25 Z M 72.171875 -101.609375 C 70.765625 -105.046875 68.972656 -107.847656 66.796875 -110.015625 C 64.984375 -111.898438 62.707031 -113.328125 59.96875 -114.296875 C 57.03125 -115.171875 53.601562 -114.671875 49.6875 -112.796875 L 47.734375 -111.875 L 27.046875 -100.640625 L 46.84375 -63.46875 L 65.984375 -73.640625 C 71.753906 -76.390625 74.914062 -80.296875 75.46875 -85.359375 C 76.019531 -90.429688 75.148438 -95.613281 72.859375 -100.90625 Z M 30.75 -181.25 C 29.34375 -184.6875 27.550781 -187.484375 25.375 -189.640625 C 23.570312 -191.515625 21.296875 -192.941406 18.546875 -193.921875 C 15.597656 -194.804688 12.171875 -194.316406 8.265625 -192.453125 L 6.296875 -191.515625 L -14.375 -180.28125 L 5.421875 -143.109375 L 24.546875 -153.265625 C 30.128906 -155.929688 33.160156 -159.890625 33.640625 -165.140625 C 34.191406 -170.203125 33.457031 -175.332031 31.4375 -180.53125 Z M 30.75 -181.25 "/></g></g></g><g fill="#ffffff" fill-opacity="1"><g transform="translate(289.331062, 298.442038)"><g><path d="M -23.03125 -149.5 L 30.25 -165.015625 L 46.734375 -82.796875 C 48.015625 -76.960938 49.265625 -71.742188 50.484375 -67.140625 C 51.492188 -62.515625 52.863281 -58.703125 54.59375 -55.703125 C 56.300781 -52.703125 58.441406 -50.640625 61.015625 -49.515625 C 63.429688 -48.148438 66.648438 -47.910156 70.671875 -48.796875 C 71.078125 -48.890625 71.554688 -49.097656 72.109375 -49.421875 C 72.515625 -49.515625 73.019531 -49.628906 73.625 -49.765625 C 78.570312 -51.265625 82.175781 -53.109375 84.4375 -55.296875 C 86.707031 -57.492188 88.113281 -60.234375 88.65625 -63.515625 C 89.25 -66.585938 89.132812 -70.46875 88.3125 -75.15625 C 87.34375 -79.59375 86.171875 -84.929688 84.796875 -91.171875 L 67.296875 -169.34375 L 120.28125 -184.796875 L 137.78125 -106.609375 C 139.945312 -96.734375 141.441406 -87.039062 142.265625 -77.53125 C 143.148438 -67.78125 141.992188 -58.644531 138.796875 -50.125 C 135.597656 -41.613281 129.546875 -34.0625 120.640625 -27.46875 C 111.796875 -20.664062 98.710938 -15.359375 81.390625 -11.546875 C 65.472656 -8.046875 52.375 -7.597656 42.09375 -10.203125 C 31.601562 -12.753906 23.125 -17.222656 16.65625 -23.609375 C 10.03125 -29.753906 4.972656 -37.410156 1.484375 -46.578125 C -1.960938 -55.523438 -4.726562 -64.738281 -6.8125 -74.21875 Z M -23.03125 -149.5 "/></g></g></g><g fill="#ffffff" fill-opacity="1"><g transform="translate(435.979597, 264.22486)"><g><path d="M 0.4375 -81.671875 C 0.488281 -91.359375 1.359375 -100.734375 3.046875 -109.796875 C 4.753906 -118.859375 7.890625 -126.890625 12.453125 -133.890625 C 17.035156 -140.878906 23.460938 -146.414062 31.734375 -150.5 C 39.796875 -154.570312 50.425781 -156.578125 63.625 -156.515625 C 69.601562 -156.484375 74.550781 -155.835938 78.46875 -154.578125 C 82.375 -153.316406 85.664062 -151.75 88.34375 -149.875 C 91.007812 -147.800781 93.265625 -145.519531 95.109375 -143.03125 C 96.742188 -140.34375 98.273438 -137.550781 99.703125 -134.65625 L 101.875 -134.65625 L 100.734375 -212.296875 L 162.921875 -215.6875 L 162.171875 -72.453125 C 162.109375 -61.523438 162.160156 -51.628906 162.328125 -42.765625 C 162.273438 -33.890625 162.335938 -26.15625 162.515625 -19.5625 C 162.679688 -11.925781 162.851562 -5.117188 163.03125 0.859375 L 109.5 0.578125 L 113.09375 -35.296875 C 111.613281 -27.242188 109.109375 -20.859375 105.578125 -16.140625 C 101.835938 -11.210938 97.796875 -7.519531 93.453125 -5.0625 C 89.109375 -2.625 84.765625 -1.101562 80.421875 -0.5 C 75.890625 0.300781 72.078125 0.691406 68.984375 0.671875 L 64.65625 0.65625 C 64.03125 0.445312 63.515625 0.335938 63.109375 0.328125 C 51.972656 0.273438 42.703125 -1.832031 35.296875 -6 C 27.890625 -9.957031 21.9375 -15.039062 17.4375 -21.25 C 12.71875 -27.257812 9.144531 -33.773438 6.71875 -40.796875 C 2.445312 -52.785156 0.351562 -66.410156 0.4375 -81.671875 Z M 59.796875 -75.484375 C 59.753906 -68.671875 59.828125 -62.789062 60.015625 -57.84375 C 60.191406 -52.894531 60.992188 -48.765625 62.421875 -45.453125 C 63.640625 -42.140625 65.6875 -39.65625 68.5625 -38 C 71.445312 -36.332031 75.566406 -35.488281 80.921875 -35.46875 C 86.703125 -35.4375 91.144531 -36.234375 94.25 -37.859375 C 97.351562 -39.492188 99.632812 -41.957031 101.09375 -45.25 C 102.34375 -48.539062 103.085938 -52.660156 103.328125 -57.609375 C 103.554688 -62.554688 103.691406 -68.4375 103.734375 -75.25 L 103.8125 -90.09375 C 103.832031 -94.21875 103.535156 -97.722656 102.921875 -100.609375 C 102.328125 -103.296875 101.203125 -105.363281 99.546875 -106.8125 C 97.703125 -108.0625 94.925781 -108.695312 91.21875 -108.71875 C 88.738281 -108.738281 85.4375 -108.445312 81.3125 -107.84375 C 75.945312 -107.039062 71.816406 -106.132812 68.921875 -105.125 C 66.023438 -104.101562 63.953125 -102.566406 62.703125 -100.515625 C 61.253906 -98.253906 60.414062 -95.269531 60.1875 -91.5625 C 59.957031 -87.644531 59.828125 -82.285156 59.796875 -75.484375 Z M 59.796875 -75.484375 "/></g></g></g><g fill="#ffffff" fill-opacity="1"><g transform="translate(588.913131, 263.209086)"><g><path d="M 18.5 -79.546875 C 20.695312 -88.984375 23.628906 -97.929688 27.296875 -106.390625 C 30.960938 -114.847656 35.796875 -121.988281 41.796875 -127.8125 C 47.804688 -133.601562 55.296875 -137.570312 64.265625 -139.71875 C 73.035156 -141.914062 83.847656 -141.519531 96.703125 -138.53125 C 102.535156 -137.175781 107.21875 -135.453125 110.75 -133.359375 C 114.28125 -131.265625 117.140625 -129.007812 119.328125 -126.59375 C 121.484375 -123.976562 123.179688 -121.253906 124.421875 -118.421875 C 125.421875 -115.441406 126.296875 -112.378906 127.046875 -109.234375 L 129.171875 -108.75 L 145.25 -184.71875 L 206.65625 -174.25 L 174.1875 -34.75 C 171.71875 -24.101562 169.578125 -14.4375 167.765625 -5.75 C 165.753906 2.882812 164.101562 10.4375 162.8125 16.90625 C 161.28125 24.394531 159.941406 31.070312 158.796875 36.9375 L 106.65625 24.8125 L 118.109375 -9.375 C 114.878906 -1.851562 111.015625 3.816406 106.515625 7.640625 C 101.796875 11.609375 97.039062 14.3125 92.25 15.75 C 87.46875 17.175781 82.894531 17.703125 78.53125 17.328125 C 73.925781 17.097656 70.117188 16.628906 67.109375 15.921875 L 62.890625 14.953125 C 62.335938 14.609375 61.863281 14.390625 61.46875 14.296875 C 50.625 11.773438 42.050781 7.660156 35.75 1.953125 C 29.40625 -3.535156 24.726562 -9.804688 21.71875 -16.859375 C 18.445312 -23.765625 16.398438 -30.910156 15.578125 -38.296875 C 14.078125 -50.929688 15.050781 -64.679688 18.5 -79.546875 Z M 75.015625 -60.375 C 73.472656 -53.738281 72.242188 -47.984375 71.328125 -43.109375 C 70.410156 -38.253906 70.273438 -34.050781 70.921875 -30.5 C 71.378906 -27 72.828125 -24.125 75.265625 -21.875 C 77.722656 -19.613281 81.5625 -17.875 86.78125 -16.65625 C 92.40625 -15.34375 96.90625 -15.140625 100.28125 -16.046875 C 103.675781 -16.953125 106.445312 -18.847656 108.59375 -21.734375 C 110.550781 -24.679688 112.1875 -28.535156 113.5 -33.296875 C 114.832031 -38.066406 116.269531 -43.769531 117.8125 -50.40625 L 121.1875 -64.859375 C 122.113281 -68.878906 122.601562 -72.367188 122.65625 -75.328125 C 122.65625 -78.066406 122.015625 -80.328125 120.734375 -82.109375 C 119.210938 -83.742188 116.644531 -84.976562 113.03125 -85.8125 C 110.613281 -86.375 107.328125 -86.820312 103.171875 -87.15625 C 97.765625 -87.570312 93.535156 -87.601562 90.484375 -87.25 C 87.429688 -86.894531 85.070312 -85.851562 83.40625 -84.125 C 81.488281 -82.25 80.007812 -79.523438 78.96875 -75.953125 C 77.875 -72.191406 76.554688 -67 75.015625 -60.375 Z M 75.015625 -60.375 "/></g></g></g><g fill="#ffffff" fill-opacity="1"><g transform="translate(738.268829, 296.066106)"><g><path d="M 6.546875 4.203125 L 16.59375 23.875 C 16.96875 24.050781 17.203125 24.28125 17.296875 24.5625 L 17.84375 24.828125 C 19.363281 27.859375 21.695312 30.140625 24.84375 31.671875 C 27.625 33.015625 30.492188 33.488281 33.453125 33.09375 C 36.304688 32.875 39.113281 32.054688 41.875 30.640625 C 44.613281 29.222656 47.304688 27.4375 49.953125 25.28125 C 52.328125 23.226562 54.703125 21.175781 57.078125 19.125 L 59.921875 13.28125 C 59.617188 3.039062 59.4375 -8.851562 59.375 -22.40625 C 59.207031 -35.78125 59.234375 -49.523438 59.453125 -63.640625 C 59.378906 -77.660156 59.398438 -91.398438 59.515625 -104.859375 C 59.367188 -118.242188 59.097656 -129.957031 58.703125 -140 L 121.828125 -112.765625 L 111.046875 -15.53125 C 113.148438 -17.5 115.5625 -20.34375 118.28125 -24.0625 C 121.007812 -27.78125 124.691406 -32.523438 129.328125 -38.296875 C 133.691406 -43.960938 139.242188 -50.664062 145.984375 -58.40625 C 152.710938 -66.144531 161.1875 -75.097656 171.40625 -85.265625 L 230.625 -59.9375 L 98.890625 57.640625 C 92.867188 62.972656 86.238281 67.664062 79 71.71875 C 71.757812 75.769531 64.226562 78.765625 56.40625 80.703125 C 48.507812 82.816406 40.445312 83.597656 32.21875 83.046875 C 23.820312 82.398438 15.539062 80.097656 7.375 76.140625 C 0.882812 72.984375 -4.273438 69.21875 -8.109375 64.84375 C -12.023438 60.644531 -15.019531 56.664062 -17.09375 52.90625 C -18.414062 50.4375 -19.425781 47.316406 -20.125 43.546875 C -21.082031 39.859375 -21.90625 36.128906 -22.59375 32.359375 Z M 6.546875 4.203125 "/></g></g></g></g></g><g fill="#01031a" fill-opacity="1"><g transform="translate(302.312943, 617.620403)"><g><path d="M 46.71875 -21.050781 L 38.882812 -38.441406 C 37.304688 -41.941406 35.871094 -44.675781 34.574219 -46.652344 C 34.199219 -47.222656 33.894531 -47.640625 33.667969 -47.90625 C 33.84375 -47.699219 34.15625 -47.425781 34.605469 -47.078125 L 51.644531 -69.070312 L 35.140625 -46.671875 C 37.679688 -44.804688 40.539062 -43.8125 43.726562 -43.703125 C 44.859375 -43.667969 45.90625 -43.757812 46.863281 -43.976562 C 47.265625 -44.066406 47.554688 -44.152344 47.726562 -44.230469 C 46.113281 -43.503906 43.539062 -41.730469 40.003906 -38.910156 L 22.652344 -60.65625 L 48.019531 -72.085938 L 78.34375 -4.785156 L -10.070312 35.050781 L -92.660156 -148.246094 L -6.683594 -190.246094 L -6.289062 -190.421875 C 1.613281 -193.984375 9.335938 -196.492188 16.882812 -197.949219 L 17.308594 -198.03125 L 17.742188 -198.101562 C 26.605469 -199.527344 35.191406 -199.308594 43.492188 -197.449219 C 52.824219 -195.191406 61.191406 -190.894531 68.601562 -184.558594 C 75.1875 -178.921875 80.976562 -171.59375 85.960938 -162.574219 L 86.324219 -161.910156 L 90.234375 -153.828125 L 90.390625 -153.484375 C 93.3125 -146.992188 95.261719 -140.425781 96.230469 -133.785156 C 97.417969 -126.144531 97.132812 -118.636719 95.371094 -111.265625 C 93.472656 -103.320312 89.886719 -96.117188 84.617188 -89.648438 C 79.816406 -83.574219 73.5625 -78.402344 65.851562 -74.125 L 52.355469 -98.453125 L 42.300781 -124.390625 C 54.285156 -129.035156 65.289062 -130.605469 75.316406 -129.09375 C 86.230469 -127.445312 95.964844 -122.574219 104.519531 -114.472656 L 104.828125 -114.179688 L 105.128906 -113.878906 C 111.296875 -107.667969 116.996094 -99.679688 122.21875 -89.914062 C 126.515625 -81.851562 131.144531 -72.320312 136.097656 -61.324219 L 147.527344 -35.957031 L 58.148438 4.3125 Z M 97.449219 -43.90625 L 72.082031 -32.480469 L 60.65625 -57.84375 L 99.304688 -75.257812 L 110.734375 -49.894531 L 85.371094 -38.464844 C 80.921875 -48.339844 76.847656 -56.742188 73.148438 -63.675781 C 70.492188 -68.648438 67.992188 -72.3125 65.65625 -74.664062 L 85.390625 -94.273438 L 66.261719 -74.070312 C 66.082031 -74.242188 65.929688 -74.371094 65.804688 -74.460938 C 65.789062 -74.472656 65.777344 -74.480469 65.777344 -74.480469 C 65.800781 -74.464844 65.835938 -74.449219 65.875 -74.429688 C 66.210938 -74.257812 66.59375 -74.136719 67.023438 -74.070312 C 67.324219 -74.027344 67.566406 -74.007812 67.742188 -74.011719 C 67.628906 -74.007812 67.4375 -73.984375 67.167969 -73.9375 C 65.914062 -73.730469 64.328125 -73.253906 62.410156 -72.511719 L 38.859375 -122.78125 C 40.074219 -123.453125 40.949219 -124.128906 41.484375 -124.796875 C 41.402344 -124.699219 41.324219 -124.496094 41.253906 -124.195312 C 41.316406 -124.464844 41.292969 -124.980469 41.171875 -125.742188 C 40.953125 -127.242188 40.449219 -128.871094 39.660156 -130.625 L 65.023438 -142.054688 L 39.976562 -129.945312 L 36.5625 -137.007812 L 61.609375 -149.117188 L 37.257812 -135.664062 C 35.523438 -138.804688 33.914062 -141.007812 32.433594 -142.277344 C 31.769531 -142.839844 31.40625 -143.132812 31.339844 -143.152344 C 29.992188 -143.453125 28.402344 -143.457031 26.570312 -143.164062 L 22.15625 -170.632812 L 27.433594 -143.316406 C 24.140625 -142.679688 20.519531 -141.472656 16.570312 -139.691406 L 5.140625 -165.058594 L 17.351562 -140.058594 L -44.007812 -110.089844 L -56.21875 -135.085938 L -30.851562 -146.515625 L 29.230469 -13.171875 L 3.863281 -1.742188 L -7.5625 -27.105469 L 30.121094 -44.085938 L 41.550781 -18.722656 L 16.183594 -7.292969 L -11.589844 -68.929688 L 5.304688 -82.40625 C 12.484375 -88.132812 19.007812 -92.316406 24.867188 -94.957031 C 31.832031 -98.097656 38.75 -99.546875 45.625 -99.3125 C 53.925781 -99.03125 61.433594 -96.414062 68.148438 -91.464844 L 68.417969 -91.269531 L 68.683594 -91.0625 C 73.152344 -87.597656 77.289062 -82.972656 81.089844 -77.1875 C 83.992188 -72.761719 86.832031 -67.46875 89.613281 -61.300781 Z M 19.285156 -131.210938 L 34.175781 -98.164062 L 8.8125 -86.734375 L -2.617188 -112.101562 L 12.261719 -118.804688 C 11.460938 -118.445312 10.765625 -118.082031 10.175781 -117.714844 C 10.109375 -117.671875 10.0625 -117.644531 10.035156 -117.625 C 10.085938 -117.65625 10.148438 -117.703125 10.234375 -117.765625 L 11.339844 -118.554688 L 12.519531 -119.234375 C 10.152344 -117.871094 8.25 -116.15625 6.820312 -114.097656 L 7.429688 -114.976562 L 8.105469 -115.804688 C 5.992188 -113.210938 4.699219 -110.488281 4.226562 -107.640625 C 3.84375 -105.035156 3.855469 -102.714844 4.253906 -100.683594 C 4.457031 -99.65625 4.71875 -98.78125 5.046875 -98.058594 L -1.222656 -111.972656 L 24.140625 -123.402344 L -0.765625 -111.007812 C -0.371094 -110.21875 0.269531 -109.347656 1.15625 -108.398438 C 3.128906 -106.296875 5.566406 -104.695312 8.464844 -103.597656 L 18.320312 -129.613281 L 9.605469 -103.191406 C 12.183594 -102.34375 14.800781 -102.039062 17.457031 -102.285156 C 19.355469 -102.460938 21.070312 -102.894531 22.605469 -103.589844 L 11.179688 -128.953125 L 24.234375 -104.386719 L 6.976562 -95.214844 L -6.078125 -119.78125 Z M -42.152344 -132.117188 L -1.078125 -153.945312 L -0.25 -154.316406 C 3.863281 -156.171875 8.058594 -157.296875 12.332031 -157.691406 C 17.371094 -158.15625 22.273438 -157.605469 27.035156 -156.035156 L 27.609375 -155.84375 L 28.175781 -155.628906 C 37.214844 -152.207031 44.171875 -145.59375 49.046875 -135.796875 L 49.285156 -135.316406 L 55.777344 -120.917969 C 59.097656 -113.542969 60.210938 -106.078125 59.113281 -98.519531 C 57.972656 -91.652344 55.347656 -85.695312 51.238281 -80.652344 L 29.671875 -98.226562 L 52.523438 -82.359375 C 49.210938 -77.589844 45.140625 -73.816406 40.3125 -71.03125 L 26.417969 -95.132812 L 42.597656 -72.503906 C 39.929688 -70.597656 37.4375 -69.121094 35.121094 -68.074219 L -5.125 -49.941406 L -31.445312 -108.351562 Z M -42.152344 -132.117188 "/></g></g></g><g fill="#01031a" fill-opacity="1"><g transform="translate(404.861855, 570.810471)"><g><path d="M -33.589844 -44.65625 C -35.132812 -51.925781 -36.367188 -59.253906 -37.289062 -66.652344 C -38.582031 -77.152344 -37.679688 -87.335938 -34.578125 -97.207031 C -30.917969 -108.429688 -24.054688 -118.1875 -13.992188 -126.480469 C -5.15625 -133.898438 7.238281 -139.6875 23.1875 -143.847656 L 23.808594 -144.007812 L 28.785156 -145.066406 C 44.960938 -148.5 58.820312 -148.445312 70.371094 -144.898438 C 82.46875 -140.964844 92.285156 -134.726562 99.824219 -126.179688 L 100.101562 -125.867188 L 100.367188 -125.542969 C 106.835938 -117.746094 111.582031 -108.867188 114.597656 -98.902344 C 116.792969 -91.617188 118.613281 -84.554688 120.066406 -77.71875 C 121.753906 -69.765625 122.90625 -61.921875 123.523438 -54.1875 C 124.417969 -43.351562 122.992188 -33.046875 119.246094 -23.277344 C 115.054688 -12.355469 107.691406 -3.039062 97.148438 4.667969 C 88.003906 11.59375 75.464844 16.75 59.53125 20.132812 C 44.328125 23.363281 31.089844 23.511719 19.820312 20.578125 C 7.820312 17.570312 -2.195312 12.042969 -10.226562 3.996094 L 9.460938 -15.660156 L -9.597656 4.609375 C -17.265625 -2.601562 -23.035156 -11.382812 -26.894531 -21.734375 C -29.6875 -29.148438 -31.917969 -36.789062 -33.589844 -44.65625 Z M 20.839844 -56.214844 C 21.925781 -51.089844 23.390625 -46.082031 25.234375 -41.183594 C 26.066406 -38.953125 27.160156 -37.203125 28.515625 -35.929688 L 28.835938 -35.628906 L 29.144531 -35.316406 C 29.921875 -34.542969 31.480469 -33.859375 33.824219 -33.269531 C 34.796875 -33.019531 36.210938 -32.917969 38.070312 -32.96875 C 40.867188 -33.042969 44.167969 -33.484375 47.972656 -34.292969 C 52.382812 -35.230469 56.105469 -36.300781 59.144531 -37.507812 C 61.300781 -38.363281 63.023438 -39.277344 64.3125 -40.253906 C 65.4375 -41.074219 66.285156 -41.839844 66.859375 -42.546875 C 67.089844 -42.828125 67.234375 -43.046875 67.292969 -43.203125 C 68.011719 -45.070312 68.265625 -47.257812 68.058594 -49.765625 C 67.632812 -55.101562 66.828125 -60.566406 65.640625 -66.160156 C 64.507812 -71.488281 63.078125 -77.027344 61.347656 -82.773438 C 60.5 -85.566406 59.234375 -87.980469 57.550781 -90.011719 L 78.960938 -107.777344 L 58.09375 -89.371094 C 57.261719 -90.320312 55.910156 -91.097656 54.039062 -91.707031 C 53.371094 -91.914062 52.203125 -92.003906 50.535156 -91.976562 C 47.722656 -91.929688 44.324219 -91.484375 40.34375 -90.636719 L 35.988281 -89.714844 L 30.210938 -116.925781 L 37.234375 -90.007812 C 32.78125 -88.847656 29.058594 -87.59375 26.058594 -86.242188 C 23.984375 -85.3125 22.433594 -84.414062 21.398438 -83.546875 C 20.265625 -82.613281 19.414062 -81.753906 18.84375 -80.96875 C 18.609375 -80.644531 18.496094 -80.5 18.503906 -80.53125 C 17.8125 -78.332031 17.617188 -76.003906 17.921875 -73.550781 C 18.648438 -67.71875 19.621094 -61.941406 20.839844 -56.214844 Z M 48.316406 -56.746094 C 47.628906 -56.476562 47.136719 -56.265625 46.835938 -56.109375 C 47.257812 -56.328125 47.796875 -56.699219 48.457031 -57.226562 L 31.117188 -78.980469 L 49.109375 -57.761719 C 50.769531 -59.171875 52.167969 -60.859375 53.304688 -62.824219 C 54.542969 -64.972656 55.355469 -67.253906 55.738281 -69.667969 L 55.597656 -68.769531 L 55.398438 -67.886719 C 55.632812 -68.929688 55.75 -69.894531 55.75 -70.78125 C 55.75 -70.988281 55.746094 -71.164062 55.730469 -71.316406 L 55.734375 -71.304688 C 56.109375 -68.96875 56.71875 -65.816406 57.5625 -61.84375 C 58.390625 -57.953125 59.160156 -54.628906 59.871094 -51.871094 C 59.957031 -51.542969 60.011719 -51.34375 60.042969 -51.273438 C 59.859375 -51.714844 59.570312 -52.230469 59.179688 -52.816406 L 59.78125 -51.917969 L 60.308594 -50.976562 C 59.230469 -52.894531 57.789062 -54.613281 55.984375 -56.125 C 53.800781 -57.957031 51.34375 -59.269531 48.617188 -60.066406 L 49.875 -59.699219 L 51.089844 -59.214844 C 48.820312 -60.121094 46.601562 -60.582031 44.441406 -60.601562 C 43.707031 -60.609375 43.175781 -60.578125 42.839844 -60.507812 L 42.816406 -60.492188 C 42.523438 -60.402344 42.195312 -60.277344 41.832031 -60.117188 C 40.140625 -59.367188 38.515625 -58.253906 36.960938 -56.773438 L 37.542969 -57.328125 L 38.15625 -57.847656 C 36.183594 -56.175781 34.601562 -54.199219 33.410156 -51.914062 C 32.460938 -50.097656 31.847656 -48.25 31.5625 -46.375 C 31.507812 -46.078125 31.488281 -45.691406 31.5 -45.210938 C 31.496094 -45.289062 31.46875 -45.492188 31.414062 -45.828125 L 58.851562 -50.417969 L 31.636719 -44.640625 L 29.261719 -55.835938 C 28.351562 -60.117188 27.609375 -64.003906 27.03125 -67.488281 L 54.480469 -72.023438 L 27.265625 -66.246094 C 27.003906 -67.492188 26.804688 -68.261719 26.675781 -68.5625 C 27.296875 -67.125 28.15625 -65.738281 29.257812 -64.402344 C 30.84375 -62.484375 32.746094 -60.890625 34.96875 -59.625 C 37.820312 -58.003906 40.8125 -57.066406 43.941406 -56.820312 C 45.632812 -56.6875 47.167969 -56.765625 48.558594 -57.0625 C 49.113281 -57.179688 49.574219 -57.300781 49.9375 -57.429688 C 49.875 -57.410156 49.726562 -57.347656 49.492188 -57.242188 L 48.910156 -56.980469 Z M 27.96875 -108.535156 L 38.140625 -82.640625 L 26.789062 -108.039062 C 30.429688 -109.667969 33.832031 -110.816406 37 -111.488281 C 46.386719 -113.480469 54.882812 -112.3125 62.488281 -107.984375 C 69.371094 -104.066406 74.46875 -98.261719 77.78125 -90.570312 C 79.363281 -86.894531 80.667969 -82.640625 81.695312 -77.804688 L 81.824219 -77.1875 L 81.929688 -76.5625 C 82.367188 -73.90625 82.953125 -70.851562 83.6875 -67.394531 L 86.191406 -55.605469 L 86.292969 -55.007812 C 87.347656 -48.6875 87.445312 -43.046875 86.582031 -38.085938 C 85.941406 -33.824219 84.65625 -29.847656 82.734375 -26.160156 C 80.566406 -22.011719 77.699219 -18.425781 74.136719 -15.402344 L 56.148438 -36.625 L 75.332031 -16.476562 C 69.96875 -11.371094 62.988281 -7.902344 54.398438 -6.078125 C 45.589844 -4.207031 37.628906 -4.6875 30.515625 -7.519531 L 40.804688 -33.367188 L 32.988281 -6.667969 C 28.261719 -8.050781 24.011719 -10.320312 20.246094 -13.476562 C 16.859375 -16.316406 14.046875 -19.726562 11.808594 -23.710938 L 36.058594 -37.34375 L 12.9375 -21.871094 C 9.914062 -26.390625 7.597656 -31.753906 5.996094 -37.957031 C 5.082031 -41.5 4.128906 -45.609375 3.136719 -50.289062 C 2.101562 -55.164062 1.320312 -59.230469 0.796875 -62.480469 C -0.21875 -68.820312 -0.109375 -74.726562 1.136719 -80.199219 L 28.265625 -74.042969 L 0.792969 -78.417969 C 1.484375 -82.777344 2.925781 -86.851562 5.117188 -90.644531 C 7.203125 -94.257812 9.875 -97.445312 13.128906 -100.203125 L 13.449219 -100.476562 L 13.777344 -100.738281 C 17.441406 -103.660156 22.171875 -106.257812 27.96875 -108.535156 Z M 27.96875 -108.535156 "/></g></g></g><g fill="#01031a" fill-opacity="1"><g transform="translate(500.363791, 549.396767)"><g><path d="M -23.859375 -24.316406 C -23.964844 -33.320312 -22.128906 -41.34375 -18.359375 -48.386719 C -14.695312 -55.230469 -9.730469 -60.796875 -3.457031 -65.082031 C 2.03125 -68.832031 8.222656 -71.46875 15.113281 -72.984375 C 20.363281 -74.140625 25.851562 -74.753906 31.578125 -74.820312 C 40.457031 -74.917969 49.324219 -74.007812 58.175781 -72.085938 L 58.511719 -72.015625 L 58.84375 -71.933594 C 66.730469 -70.015625 73.535156 -67.933594 79.25 -65.6875 L 69.074219 -39.792969 L 41.253906 -39.476562 L 40.945312 -66.816406 L 68.761719 -67.132812 L 71.484375 -39.449219 L -19.691406 -30.484375 L -20.871094 -133.878906 L 7.253906 -133.894531 C 20.378906 -133.898438 32.800781 -133.828125 44.515625 -133.675781 C 56.1875 -133.519531 66.519531 -133.277344 75.503906 -132.945312 L 130.46875 -131.09375 L 130.648438 26.332031 L 44.050781 27.320312 L 41.785156 -13.894531 L 69.566406 -15.421875 L 88.570312 4.894531 C 81.160156 11.828125 72.617188 17.253906 62.949219 21.164062 C 53.203125 25.234375 43.347656 27.328125 33.382812 27.441406 C 25.132812 27.535156 17.550781 26.296875 10.632812 23.726562 L 20.324219 -2.351562 L 11.523438 24.039062 C 3.789062 21.460938 -2.75 17.5625 -8.085938 12.347656 L 11.359375 -7.550781 L -7.472656 12.925781 C -13.039062 7.808594 -17.183594 1.789062 -19.910156 -5.128906 L 5.972656 -15.332031 L -19.472656 -4.082031 C -22.316406 -10.515625 -23.78125 -17.261719 -23.859375 -24.316406 Z M 31.777344 -24.953125 C 31.769531 -25.507812 31.652344 -26.050781 31.417969 -26.582031 L 31.648438 -26.058594 L 31.855469 -25.53125 C 31.457031 -26.542969 30.902344 -27.371094 30.195312 -28.023438 L 30.503906 -27.738281 L 30.808594 -27.445312 C 30.292969 -27.945312 29.78125 -28.34375 29.273438 -28.640625 C 29.152344 -28.710938 29.050781 -28.761719 28.972656 -28.796875 C 28.992188 -28.789062 29.042969 -28.769531 29.121094 -28.746094 L 29.570312 -28.59375 L 30.011719 -28.429688 C 30.476562 -28.257812 31.386719 -28.179688 32.746094 -28.195312 C 35.5 -28.226562 38.609375 -28.96875 42.085938 -30.417969 C 45.359375 -31.742188 48.183594 -33.515625 50.558594 -35.738281 L 94.074219 -76.445312 L 98.148438 -2.328125 L 70.367188 -0.804688 L 70.050781 -28.621094 L 102.480469 -28.992188 L 102.796875 -1.175781 L 74.976562 -1.140625 L 74.859375 -104.164062 L 102.679688 -104.195312 L 101.742188 -76.390625 L 73.449219 -77.34375 C 64.902344 -77.65625 55.015625 -77.890625 43.792969 -78.039062 C 32.328125 -78.1875 20.160156 -78.257812 7.28125 -78.25 L 7.269531 -106.074219 L 35.085938 -106.390625 L 35.601562 -61.457031 L 7.78125 -61.140625 L 5.058594 -88.824219 L 96.234375 -97.789062 L 97.367188 1.21875 L 58.898438 -13.898438 C 55.53125 -15.222656 51.128906 -16.546875 45.695312 -17.867188 L 52.269531 -44.902344 L 46.367188 -17.714844 C 41.617188 -18.746094 36.898438 -19.234375 32.214844 -19.179688 C 30.308594 -19.160156 28.601562 -18.980469 27.082031 -18.648438 L 27.078125 -18.664062 C 27.347656 -18.777344 27.632812 -18.9375 27.933594 -19.140625 C 29.15625 -19.976562 30.078125 -20.972656 30.695312 -22.132812 C 31.199219 -23.066406 31.535156 -23.957031 31.710938 -24.804688 C 31.75 -24.980469 31.773438 -25.121094 31.78125 -25.230469 C 31.777344 -25.179688 31.777344 -25.085938 31.777344 -24.953125 Z M 59.132812 -24.203125 C 59.09375 -27.609375 58.191406 -30.898438 56.433594 -34.078125 C 54.367188 -37.8125 51.511719 -40.695312 47.867188 -42.722656 L 48.503906 -42.367188 L 49.117188 -41.984375 C 47.476562 -43.011719 45.792969 -43.726562 44.070312 -44.125 C 43.214844 -44.324219 42.488281 -44.417969 41.886719 -44.410156 C 39.207031 -44.378906 36.761719 -43.796875 34.554688 -42.660156 L 35.011719 -42.898438 L 35.476562 -43.117188 L 35.488281 -43.125 C 35.570312 -43.183594 35.742188 -43.347656 36.003906 -43.613281 L 55.898438 -24.167969 L 36.453125 -4.273438 C 35.757812 -4.953125 35.101562 -5.53125 34.484375 -6.011719 L 51.617188 -27.933594 L 35.921875 -4.960938 C 35.351562 -5.351562 34.742188 -5.71875 34.089844 -6.066406 L 47.132812 -30.640625 L 36.726562 -4.839844 C 38.464844 -4.136719 40.339844 -3.800781 42.351562 -3.820312 C 42.949219 -3.828125 43.675781 -3.941406 44.527344 -4.15625 C 46.238281 -4.597656 47.90625 -5.347656 49.523438 -6.414062 L 34.214844 -29.644531 L 50.640625 -7.191406 C 53.261719 -9.109375 55.335938 -11.578125 56.859375 -14.605469 C 58.410156 -17.683594 59.167969 -20.882812 59.132812 -24.203125 Z M 3.492188 -23.570312 C 3.429688 -29.292969 4.65625 -34.652344 7.175781 -39.652344 C 9.667969 -44.59375 13.203125 -48.742188 17.785156 -52.097656 L 18.335938 -52.5 L 18.902344 -52.871094 C 25.414062 -57.164062 33.019531 -59.359375 41.714844 -59.460938 C 47.121094 -59.523438 52.394531 -58.515625 57.539062 -56.441406 L 58.890625 -55.894531 L 60.175781 -55.214844 C 62.652344 -53.898438 65.03125 -52.464844 67.308594 -50.90625 L 68.042969 -50.40625 L 68.746094 -49.855469 C 70.980469 -48.109375 73.179688 -46.179688 75.34375 -44.0625 L 95.238281 -24.617188 L 75.792969 -4.722656 C 73.261719 -2.132812 70.636719 0.140625 67.914062 2.089844 C 65.121094 4.09375 62.175781 5.820312 59.078125 7.273438 L 47.277344 -17.921875 L 60.003906 6.816406 C 54.425781 9.6875 48.597656 11.15625 42.523438 11.226562 C 33.828125 11.324219 26.175781 9.304688 19.566406 5.160156 L 34.34375 -18.410156 L 20.816406 5.902344 C 15.179688 2.765625 10.824219 -1.582031 7.75 -7.140625 C 4.980469 -12.144531 3.5625 -17.621094 3.492188 -23.570312 Z M 3.492188 -23.570312 "/></g></g></g><g fill="#01031a" fill-opacity="1"><g transform="translate(596.093968, 546.644237)"><g><path d="M -16.636719 -60.238281 C -15.050781 -68.398438 -12.808594 -76.203125 -9.90625 -83.648438 C -6.261719 -92.988281 -1.171875 -101.058594 5.363281 -107.851562 C 12.84375 -115.621094 22.0625 -121.035156 33.027344 -124.089844 C 43.09375 -127.007812 54.765625 -127.175781 68.039062 -124.597656 C 74.871094 -123.269531 80.777344 -121.253906 85.761719 -118.542969 C 90.699219 -115.863281 94.921875 -112.71875 98.441406 -109.117188 L 98.925781 -108.617188 L 99.386719 -108.09375 C 102.601562 -104.457031 105.21875 -100.546875 107.25 -96.359375 L 107.808594 -95.207031 L 108.257812 -94.011719 C 109.308594 -91.226562 110.238281 -88.378906 111.050781 -85.460938 L 84.25 -77.992188 L 89.554688 -105.300781 L 91.011719 -105.019531 L 85.707031 -77.710938 L 58.296875 -82.46875 L 71.976562 -161.242188 L 170.0625 -148.191406 L 145.714844 -22.863281 C 144.328125 -15.726562 143.140625 -9.265625 142.15625 -3.484375 L 142.101562 -3.167969 L 142.039062 -2.847656 C 140.9375 2.832031 140.046875 7.761719 139.371094 11.941406 L 132.5 54.082031 L 38.332031 35.789062 L 53.949219 -17.242188 L 80.636719 -9.382812 L 106.578125 0.664062 C 102.992188 9.925781 98.113281 17.386719 91.945312 23.046875 C 85.859375 28.554688 79.378906 32.476562 72.507812 34.808594 C 65.917969 37.042969 59.359375 38 52.832031 37.671875 L 54.21875 9.886719 L 53.886719 37.707031 C 49.054688 37.648438 44.777344 37.257812 41.054688 36.53125 L 33.710938 35.105469 L 29.777344 32.886719 C 32.007812 34.148438 34.464844 35.035156 37.140625 35.558594 C 24.933594 33.183594 14.761719 28.582031 6.628906 21.742188 C -0.871094 15.714844 -6.65625 8.394531 -10.71875 -0.222656 L 14.441406 -12.09375 L -10.253906 0.71875 C -14.089844 -6.675781 -16.609375 -14.425781 -17.8125 -22.53125 C -19.644531 -34.210938 -19.253906 -46.777344 -16.636719 -60.238281 Z M 37.980469 -49.625 C 36.609375 -42.554688 36.355469 -36.246094 37.226562 -30.703125 C 37.519531 -28.730469 38.15625 -26.796875 39.136719 -24.90625 L 39.378906 -24.441406 L 39.601562 -23.964844 C 40.023438 -23.070312 40.964844 -22.03125 42.429688 -20.847656 C 42.59375 -20.710938 42.9375 -20.527344 43.453125 -20.304688 C 44.574219 -19.816406 46.007812 -19.402344 47.753906 -19.0625 C 50.984375 -18.433594 54.105469 -17.273438 57.117188 -15.574219 L 43.445312 8.65625 L 48.753906 -18.652344 L 51.667969 -18.085938 C 52.105469 -18 53.066406 -17.949219 54.554688 -17.933594 L 55.082031 -17.925781 L 55.609375 -17.898438 C 55.238281 -17.917969 54.90625 -17.90625 54.613281 -17.859375 L 54.625 -17.882812 C 54.246094 -17.753906 53.957031 -17.628906 53.761719 -17.503906 C 53.917969 -17.601562 54.105469 -17.75 54.328125 -17.949219 C 53.980469 -17.632812 53.769531 -17.410156 53.691406 -17.289062 C 53.992188 -17.769531 54.328125 -18.480469 54.695312 -19.429688 L 107.324219 -1.519531 L 100.34375 22.171875 L 73.660156 14.3125 L 78.964844 -13 L 114.960938 -6.003906 L 109.65625 21.304688 L 82.195312 16.828125 L 84.445312 3.039062 C 85.214844 -1.710938 86.207031 -7.210938 87.421875 -13.460938 L 114.730469 -8.15625 L 87.304688 -12.824219 C 88.359375 -19.03125 89.625 -25.914062 91.09375 -33.476562 L 109.8125 -129.816406 L 137.121094 -124.507812 L 133.453125 -96.933594 L 91.144531 -102.558594 L 94.8125 -130.136719 L 122.222656 -125.378906 L 108.261719 -44.988281 L 62.066406 -53.960938 L 57.449219 -70.523438 C 57.074219 -71.867188 56.652344 -73.167969 56.179688 -74.421875 L 82.21875 -84.214844 L 57.1875 -72.074219 C 57.371094 -71.703125 57.53125 -71.433594 57.675781 -71.273438 L 78.53125 -89.683594 L 58.625 -70.25 C 58.929688 -69.9375 59.207031 -69.691406 59.453125 -69.511719 L 59.472656 -69.496094 C 59.398438 -69.539062 59.308594 -69.59375 59.195312 -69.652344 C 59.390625 -69.546875 59.554688 -69.46875 59.691406 -69.410156 C 59.648438 -69.425781 59.597656 -69.441406 59.535156 -69.460938 C 59.007812 -69.636719 58.308594 -69.808594 57.429688 -69.976562 C 54.742188 -70.5 52.4375 -70.761719 50.511719 -70.761719 C 49.441406 -70.761719 48.589844 -70.671875 47.960938 -70.488281 C 46.75 -70.152344 45.914062 -69.746094 45.457031 -69.269531 C 44.058594 -67.816406 42.886719 -65.871094 41.9375 -63.4375 C 40.246094 -59.109375 38.929688 -54.503906 37.980469 -49.625 Z M 77.164062 -37.910156 C 76.347656 -33.710938 75.714844 -30.125 75.265625 -27.152344 C 75.238281 -26.96875 75.21875 -26.816406 75.210938 -26.699219 C 75.207031 -26.683594 75.207031 -26.675781 75.207031 -26.671875 C 75.210938 -26.703125 75.210938 -26.742188 75.210938 -26.789062 C 75.207031 -27.351562 75.121094 -28.003906 74.953125 -28.753906 L 75.117188 -28.027344 L 75.238281 -27.289062 C 74.917969 -29.203125 74.265625 -31.050781 73.28125 -32.839844 C 72.199219 -34.804688 70.824219 -36.507812 69.152344 -37.945312 C 67.738281 -39.167969 66.300781 -40.074219 64.851562 -40.671875 C 64.566406 -40.785156 64.324219 -40.875 64.121094 -40.933594 L 64.105469 -40.9375 C 64.15625 -40.925781 64.222656 -40.910156 64.300781 -40.894531 C 64.539062 -40.851562 64.722656 -40.820312 64.851562 -40.804688 C 64.769531 -40.8125 64.636719 -40.820312 64.449219 -40.820312 C 63.132812 -40.832031 61.683594 -40.59375 60.097656 -40.105469 C 56.238281 -38.921875 53.179688 -36.691406 50.921875 -33.421875 L 73.816406 -17.617188 L 50.105469 -32.171875 C 49.835938 -31.730469 49.648438 -31.375 49.542969 -31.105469 C 49.621094 -31.300781 49.714844 -31.632812 49.824219 -32.09375 C 50.519531 -35.019531 51.273438 -38.582031 52.089844 -42.78125 L 54.03125 -52.769531 C 54.144531 -53.355469 54.222656 -53.839844 54.261719 -54.226562 C 54.269531 -54.308594 54.277344 -54.367188 54.277344 -54.398438 C 54.273438 -54.332031 54.273438 -54.242188 54.277344 -54.125 C 54.425781 -49.726562 55.878906 -45.753906 58.632812 -42.207031 L 80.613281 -59.265625 L 61.046875 -39.484375 C 62.96875 -37.585938 65.066406 -36.140625 67.347656 -35.148438 C 68.320312 -34.726562 69.179688 -34.441406 69.929688 -34.296875 C 69.625 -34.355469 68.734375 -34.417969 67.261719 -34.480469 C 66.109375 -34.523438 65.128906 -34.535156 64.316406 -34.511719 C 64.066406 -34.503906 63.867188 -34.496094 63.71875 -34.484375 C 63.785156 -34.492188 63.867188 -34.5 63.957031 -34.515625 C 65.695312 -34.78125 67.429688 -35.332031 69.160156 -36.171875 C 71.636719 -37.371094 73.8125 -39.015625 75.691406 -41.105469 L 75.445312 -40.832031 L 75.195312 -40.566406 C 77.261719 -42.75 78.574219 -44.953125 79.136719 -47.183594 C 78.617188 -45.101562 77.960938 -42.007812 77.164062 -37.910156 Z M 22.542969 -48.523438 C 23.527344 -53.578125 24.410156 -57.675781 25.191406 -60.808594 C 27 -67.976562 30.207031 -73.988281 34.808594 -78.84375 L 55 -59.707031 L 34.3125 -78.308594 C 39.851562 -84.46875 46.941406 -88.207031 55.582031 -89.523438 C 59.410156 -90.105469 64.097656 -90.289062 69.652344 -90.070312 C 73.890625 -89.886719 77.519531 -89.503906 80.542969 -88.914062 C 88.550781 -87.359375 95.097656 -84.070312 100.175781 -79.046875 L 101.472656 -77.765625 L 102.589844 -76.324219 C 107.183594 -70.402344 109.625 -63.359375 109.90625 -55.195312 C 109.984375 -51.207031 109.566406 -46.859375 108.652344 -42.15625 L 106.710938 -32.171875 C 105.75 -27.214844 104.828125 -22.894531 103.953125 -19.21875 C 102.480469 -13.03125 100.339844 -7.644531 97.523438 -3.058594 L 97.132812 -2.421875 L 96.707031 -1.808594 C 91.648438 5.523438 84.890625 10.484375 76.4375 13.082031 C 69.707031 15.148438 62.125 15.363281 53.691406 13.722656 C 45.25 12.085938 38.300781 8.914062 32.839844 4.210938 C 26.042969 -1.644531 21.886719 -9.066406 20.371094 -18.046875 L 47.804688 -22.667969 L 20.660156 -16.585938 C 19.359375 -22.386719 19.222656 -28.683594 20.25 -35.480469 C 20.816406 -39.21875 21.582031 -43.566406 22.542969 -48.523438 Z M 22.542969 -48.523438 "/></g></g></g><g fill="#f44051" fill-opacity="1"><g transform="translate(302.312943, 617.620403)"><g><path d="M 72.078125 -32.484375 L 64.234375 -49.875 C 59.890625 -59.53125 55.691406 -65.929688 51.640625 -69.078125 C 47.460938 -72.160156 42.347656 -72.335938 36.296875 -69.609375 C 32.554688 -67.921875 28.007812 -64.9375 22.65625 -60.65625 L 41.546875 -18.71875 L 3.859375 -1.734375 L -56.21875 -135.09375 L 5.140625 -165.0625 C 11.066406 -167.726562 16.738281 -169.582031 22.15625 -170.625 C 27.5 -171.476562 32.585938 -171.367188 37.421875 -170.296875 C 42.117188 -169.171875 46.484375 -166.875 50.515625 -163.40625 C 54.546875 -159.957031 58.242188 -155.195312 61.609375 -149.125 L 65.015625 -142.0625 C 66.878906 -137.925781 68.109375 -133.832031 68.703125 -129.78125 C 69.347656 -125.570312 69.21875 -121.554688 68.3125 -117.734375 C 67.394531 -113.898438 65.640625 -110.394531 63.046875 -107.21875 C 60.390625 -103.851562 56.828125 -100.925781 52.359375 -98.4375 C 59.742188 -101.3125 66.019531 -102.359375 71.1875 -101.578125 C 76.320312 -100.804688 81.050781 -98.375 85.375 -94.28125 C 89.644531 -89.988281 93.75 -84.160156 97.6875 -76.796875 C 101.6875 -69.296875 106.035156 -60.328125 110.734375 -49.890625 Z M -6.078125 -119.78125 L 8.8125 -86.734375 L 23.6875 -93.4375 C 24.332031 -93.726562 25.242188 -94.296875 26.421875 -95.140625 C 27.640625 -95.835938 28.722656 -96.867188 29.671875 -98.234375 C 30.671875 -99.453125 31.335938 -101.0625 31.671875 -103.0625 C 31.929688 -104.882812 31.507812 -107.023438 30.40625 -109.484375 L 24.140625 -123.390625 C 22.503906 -126.691406 20.566406 -128.765625 18.328125 -129.609375 C 16.140625 -130.335938 13.757812 -130.125 11.1875 -128.96875 Z M -6.078125 -119.78125 "/></g></g></g><g fill="#f44051" fill-opacity="1"><g transform="translate(404.861855, 570.810471)"><g><path d="M -6.375 -50.421875 C -7.757812 -56.921875 -8.859375 -63.476562 -9.671875 -70.09375 C -10.472656 -76.582031 -9.929688 -82.84375 -8.046875 -88.875 C -6.109375 -94.769531 -2.191406 -100.148438 3.703125 -105.015625 C 9.472656 -109.847656 18.3125 -113.820312 30.21875 -116.9375 L 34.578125 -117.859375 C 46.046875 -120.296875 55.253906 -120.445312 62.203125 -118.3125 C 69.191406 -116.03125 74.78125 -112.519531 78.96875 -107.78125 C 83.039062 -102.875 86.039062 -97.222656 87.96875 -90.828125 C 89.925781 -84.316406 91.550781 -78.019531 92.84375 -71.9375 C 94.28125 -65.164062 95.265625 -58.515625 95.796875 -51.984375 C 96.347656 -45.304688 95.503906 -39.0625 93.265625 -33.25 C 91.035156 -27.425781 86.859375 -22.273438 80.734375 -17.796875 C 74.628906 -13.179688 65.632812 -9.609375 53.75 -7.078125 C 42.832031 -4.765625 33.859375 -4.519531 26.828125 -6.34375 C 19.648438 -8.144531 13.859375 -11.25 9.453125 -15.65625 C 4.941406 -19.90625 1.515625 -25.175781 -0.828125 -31.46875 C -3.148438 -37.613281 -5 -43.929688 -6.375 -50.421875 Z M 38.140625 -82.640625 C 34.941406 -81.378906 32.601562 -80.160156 31.125 -78.984375 C 29.53125 -77.628906 28.578125 -75.984375 28.265625 -74.046875 C 27.828125 -72.066406 27.828125 -69.679688 28.265625 -66.890625 C 28.710938 -64.097656 29.40625 -60.488281 30.34375 -56.0625 C 31.25 -51.769531 32.113281 -48.050781 32.9375 -44.90625 C 33.757812 -41.757812 34.800781 -39.238281 36.0625 -37.34375 C 37.21875 -35.269531 38.800781 -33.945312 40.8125 -33.375 C 42.695312 -32.625 45.296875 -32.597656 48.609375 -33.296875 C 52.078125 -34.035156 54.59375 -35.144531 56.15625 -36.625 C 57.738281 -37.96875 58.710938 -39.835938 59.078125 -42.234375 C 59.460938 -44.484375 59.390625 -47.210938 58.859375 -50.421875 C 58.179688 -53.597656 57.390625 -57.332031 56.484375 -61.625 C 55.660156 -65.488281 54.992188 -68.953125 54.484375 -72.015625 C 53.835938 -75.054688 53.09375 -77.570312 52.25 -79.5625 C 51.375 -81.539062 50.203125 -82.957031 48.734375 -83.8125 C 47.253906 -84.644531 45.265625 -84.796875 42.765625 -84.265625 C 41.523438 -84.003906 39.984375 -83.460938 38.140625 -82.640625 Z M 38.140625 -82.640625 "/></g></g></g><g fill="#f44051" fill-opacity="1"><g transform="translate(500.363791, 549.396767)"><g><path d="M 3.953125 -24.640625 C 3.898438 -28.878906 4.640625 -32.421875 6.171875 -35.265625 C 7.691406 -38.109375 9.710938 -40.390625 12.234375 -42.109375 C 14.753906 -43.835938 17.710938 -45.078125 21.109375 -45.828125 C 24.484375 -46.578125 28.082031 -46.972656 31.90625 -47.015625 C 38.6875 -47.085938 45.476562 -46.382812 52.28125 -44.90625 C 58.9375 -43.289062 64.539062 -41.585938 69.09375 -39.796875 L 68.78125 -67.140625 L 7.78125 -61.140625 L 7.28125 -106.0625 C 20.28125 -106.0625 32.570312 -105.988281 44.15625 -105.84375 C 55.601562 -105.695312 65.710938 -105.457031 74.484375 -105.125 C 84.660156 -104.820312 94.054688 -104.507812 102.671875 -104.1875 L 102.796875 -1.171875 L 70.375 -0.796875 L 69.5625 -15.421875 C 64.664062 -10.847656 58.984375 -7.25 52.515625 -4.625 C 45.910156 -1.863281 39.425781 -0.445312 33.0625 -0.375 C 28.257812 -0.320312 24.007812 -0.984375 20.3125 -2.359375 C 16.632812 -3.585938 13.65625 -5.316406 11.375 -7.546875 C 8.9375 -9.785156 7.132812 -12.378906 5.96875 -15.328125 C 4.664062 -18.285156 3.992188 -21.390625 3.953125 -24.640625 Z M 31.3125 -23.890625 C 31.34375 -21.347656 32.351562 -19.519531 34.34375 -18.40625 C 36.332031 -17.15625 38.953125 -16.550781 42.203125 -16.59375 C 43.898438 -16.613281 45.59375 -17.054688 47.28125 -17.921875 C 48.832031 -18.640625 50.304688 -19.503906 51.703125 -20.515625 C 53.097656 -21.515625 54.5 -22.734375 55.90625 -24.171875 C 54.46875 -25.554688 53.039062 -26.8125 51.625 -27.9375 C 50.195312 -28.90625 48.703125 -29.804688 47.140625 -30.640625 C 45.429688 -31.328125 43.726562 -31.660156 42.03125 -31.640625 C 38.78125 -31.597656 36.175781 -30.929688 34.21875 -29.640625 C 32.25 -28.203125 31.28125 -26.285156 31.3125 -23.890625 Z M 31.3125 -23.890625 "/></g></g></g><g fill="#f44051" fill-opacity="1"><g transform="translate(596.093968, 546.644237)"><g><path d="M 10.671875 -54.921875 C 11.941406 -61.453125 13.722656 -67.660156 16.015625 -73.546875 C 18.304688 -79.441406 21.441406 -84.445312 25.421875 -88.5625 C 29.378906 -92.6875 34.40625 -95.597656 40.5 -97.296875 C 46.445312 -99.015625 53.859375 -99.015625 62.734375 -97.296875 C 66.753906 -96.515625 70 -95.453125 72.46875 -94.109375 C 74.957031 -92.753906 76.976562 -91.28125 78.53125 -89.6875 C 80.0625 -87.9375 81.289062 -86.113281 82.21875 -84.21875 C 82.976562 -82.195312 83.648438 -80.117188 84.234375 -77.984375 L 85.703125 -77.703125 L 94.8125 -130.140625 L 137.125 -124.515625 L 118.40625 -28.171875 C 116.976562 -20.816406 115.757812 -14.144531 114.75 -8.15625 C 113.582031 -2.1875 112.632812 3.023438 111.90625 7.484375 C 111.050781 12.648438 110.300781 17.253906 109.65625 21.296875 L 73.65625 14.3125 L 80.640625 -9.390625 C 78.617188 -4.171875 76.117188 -0.195312 73.140625 2.53125 C 70.003906 5.382812 66.816406 7.359375 63.578125 8.453125 C 60.328125 9.554688 57.207031 10.035156 54.21875 9.890625 C 51.0625 9.859375 48.4375 9.640625 46.34375 9.234375 L 43.4375 8.671875 C 43.0625 8.441406 42.726562 8.300781 42.4375 8.25 C 34.957031 6.789062 28.992188 4.191406 24.546875 0.453125 C 20.054688 -3.148438 16.6875 -7.332031 14.4375 -12.09375 C 12.03125 -16.738281 10.457031 -21.582031 9.71875 -26.625 C 8.363281 -35.238281 8.679688 -44.671875 10.671875 -54.921875 Z M 49.859375 -43.21875 C 48.960938 -38.632812 48.257812 -34.664062 47.75 -31.3125 C 47.25 -27.957031 47.269531 -25.078125 47.8125 -22.671875 C 48.207031 -20.296875 49.269531 -18.359375 51 -16.859375 C 52.71875 -15.378906 55.382812 -14.289062 59 -13.59375 C 62.882812 -12.832031 65.972656 -12.804688 68.265625 -13.515625 C 70.578125 -14.222656 72.429688 -15.59375 73.828125 -17.625 C 75.078125 -19.675781 76.09375 -22.351562 76.875 -25.65625 C 77.664062 -28.957031 78.507812 -32.898438 79.40625 -37.484375 L 81.34375 -47.46875 C 81.882812 -50.238281 82.132812 -52.640625 82.09375 -54.671875 C 82.03125 -56.535156 81.535156 -58.066406 80.609375 -59.265625 C 79.523438 -60.335938 77.734375 -61.117188 75.234375 -61.609375 C 73.566406 -61.929688 71.304688 -62.15625 68.453125 -62.28125 C 64.734375 -62.425781 61.835938 -62.335938 59.765625 -62.015625 C 57.679688 -61.703125 56.09375 -60.9375 55 -59.71875 C 53.738281 -58.375 52.789062 -56.46875 52.15625 -54 C 51.507812 -51.382812 50.742188 -47.789062 49.859375 -43.21875 Z M 49.859375 -43.21875 "/></g></g></g></svg>